<svg xmlns="http://www.w3.org/2000/svg" xmlns:xlink="http://www.w3.org/1999/xlink" viewBox="0 0 578 383.8" xmlns:v="https://vecta.io/nano"><g fill="#612166"><path d="M249.7 148.8c1.5.2 3.2.3 5 .4 4 .2 9 .5 14.3 2.2 4.6 1.5 9.3 3.6 13.9 6.1 8.5 7.3 14.8 10.4 23.2 6l40.3-21.3c2.7-1.4 4.9-3.5 6.5-5.9 3.5-5.3 4.1-12.3 1-18.4l-4.2-7.9-17.1-34.3c-1.2-2.4-3.3-4.3-5.9-5.1-2.6-.9-5.4-.7-7.8.5l-1.4.7c-2.5 1.2-4.3 3.4-5.1 5.8-2.6-4.9-8.6-6.8-13.6-4.4l-1.4.7c-2.5 1.2-4.3 3.4-5.2 5.9-2.8-4.6-8.5-6.6-13.5-4.7-3.2 1.3-5.6 3.9-6.5 7l-10.5-21.2c-1.4-2.8-3.9-4.8-6.9-5.7s-6.2-.4-8.8 1.2c-4.8 3-6.5 9.3-4 14.5l26.5 53.6c-7.9 0-19.6 1.8-25 12.3a8.26 8.26 0 0 0 0 7.5c1.3 2.5 3.5 4.1 6.2 4.5m-3.6-5.7a5.1 5.1 0 0 1 0-4.8c5.2-10.1 17.7-11 24.6-10.6h.8l1-1.4-.4-.8-27.5-55.7c-1.9-3.8-.6-8.5 2.9-10.7 2-1.2 4.3-1.5 6.5-.9s4 2.2 5 4.2l12.6 25.5h0l8.4 17.5 2.7-1.3-7.7-16c0-.1 0-.2-.1-.3-1.2-4 .9-8.3 4.8-9.9 3.9-1.5 8.4.3 10.3 4.2l1.9 3.9 5.3 13.1L300 98l-5-12.4c0-.1 0-.2-.1-.3-1-3.4.6-7 3.8-8.6l1.3-.7c3.6-1.8 8-.3 9.8 3.3l2.4 4.9 2.4 6.3 2.8-1.1-2.4-6.3V83c-.6-2.1-.2-4.3 1-6 .7-1 1.6-1.9 2.8-2.5l1.4-.7c3.6-1.8 8-.3 9.8 3.3l17.2 34.3 4.2 7.9c3.9 7.3 1.1 16.4-6.3 20.3l-40.3 21.3c-6.4 3.4-11 2-20-5.7l-.2-.1h-.1c-4.8-2.7-9.7-4.9-14.6-6.4-5.7-1.8-10.9-2.1-15-2.4-1.8-.1-3.4-.2-4.8-.4-1.7-.3-3.2-1.3-4-2.8"/><path d="M259 43.5c-8.3-5.6-19.6-3.3-25.2 5s-3.3 19.6 5 25.2c1.9 1.3 4 2.1 6.1 2.6l1.6 3.2c-3.2-.4-6.4-1.5-9.3-3.4-9.7-6.4-12.3-19.5-5.8-29.2 6.4-9.7 19.5-12.3 29.2-5.8 9.7 6.4 12.3 19.5 5.8 29.2-.1.1-.1.2-.2.3l-1.5-3c4.7-8.3 2.3-18.8-5.7-24.1m12.1-2.4c-5.3-6.8-13.6-10-21.7-9.1-.5.1-1-.2-1.3-.6-.7-.9-.1-2.2 1-2.4 9-1 18.3 2.5 24.3 10.2s7.1 17.6 4 26c-.4 1.1-1.8 1.3-2.6.4-.3-.4-.4-.9-.2-1.4 2.9-7.4 1.8-16.2-3.5-23.1m-48.8 25.8c-2.9-8.2-1-16.9 4.1-23.1.3-.4.4-.9.2-1.4-.4-1.1-1.8-1.3-2.5-.4-5.7 7-7.8 16.8-4.5 26 3.2 9.2 10.9 15.5 19.8 17.4 1.1.2 2.1-.8 1.7-1.9a1.44 1.44 0 0 0-1.1-.9c-7.9-1.8-14.8-7.5-17.7-15.7"/></g><g fill="#5e2a5f"><path d="M102.2 240.6c-3-1.6-5.4-3.9-7.1-6.7-1.7-2.9-2.6-6.1-2.6-9.7s.9-6.9 2.6-9.7c1.7-2.9 4.1-5.1 7.1-6.7s6.4-2.4 10.1-2.4c3.2 0 6 .6 8.6 1.7s4.7 2.7 6.4 4.8l-5.4 5c-2.5-2.9-5.5-4.3-9.2-4.3-2.3 0-4.3.5-6 1.5-1.8 1-3.2 2.4-4.1 4.1-1 1.8-1.5 3.8-1.5 6 0 2.3.5 4.3 1.5 6 1 1.8 2.4 3.2 4.1 4.1 1.8 1 3.8 1.5 6 1.5 3.6 0 6.7-1.4 9.2-4.3l5.4 5c-1.7 2.1-3.9 3.7-6.5 4.8s-5.4 1.7-8.6 1.7c-3.6 0-7-.8-10-2.4zm30.3-36.9h8.1v38.7h-8.1v-38.7zm16.1 5.4c-.9-.9-1.4-1.9-1.4-3.2s.5-2.4 1.4-3.2c.9-.9 2.2-1.3 3.6-1.3 1.5 0 2.7.4 3.6 1.3a4.1 4.1 0 0 1 1.4 3.1c0 1.4-.5 2.5-1.4 3.4s-2.2 1.3-3.6 1.3c-1.4-.1-2.7-.5-3.6-1.4zm-.4 5.2h8.1v28.1h-8.1v-28.1zm21.2 26.6c-2.4-1.2-4.2-2.9-5.6-5.1-1.3-2.2-2-4.7-2-7.5s.7-5.3 2-7.5 3.2-3.9 5.6-5.1 5.1-1.9 8.1-1.9 5.5.6 7.7 1.9c2.2 1.2 3.8 3 4.8 5.3l-6.3 3.4c-1.5-2.6-3.6-3.9-6.3-3.9-2.1 0-3.9.7-5.3 2.1s-2.1 3.3-2.1 5.7.7 4.3 2.1 5.7 3.1 2.1 5.3 2.1c2.8 0 4.9-1.3 6.3-3.9l6.3 3.4c-1 2.2-2.6 4-4.8 5.2-2.2 1.3-4.8 1.9-7.7 1.9-3.1.1-5.7-.5-8.1-1.8zm37.2-9.5l-3.9 3.9v7.1h-8.1v-38.7h8.1v21.9l11.9-11.3h9.7l-11.7 11.9 12.7 16.2h-9.9l-8.8-11zm65.7 11.6l-4.4-4.1c-3.5 2.7-7.5 4.1-12.2 4.1-2.6 0-5-.4-7.1-1.3s-3.8-2-5-3.6c-1.2-1.5-1.8-3.2-1.8-5.2 0-2.3.6-4.2 1.9-6 1.3-1.7 3.3-3.4 6.1-4.9-1.3-1.4-2.3-2.7-2.9-3.9a8.49 8.49 0 0 1-.9-3.8c0-1.8.5-3.3 1.4-4.7s2.3-2.4 4-3.2 3.7-1.1 6-1.1c3.2 0 5.7.8 7.6 2.3s2.9 3.6 2.9 6.1c0 1.9-.6 3.5-1.7 5s-2.9 2.9-5.4 4.2l6.7 6.2c.8-1.7 1.4-3.6 1.8-5.7l6.5 2c-.7 3.2-1.8 6-3.3 8.3l4.3 4-4.5 5.3zm-9.2-8.5l-8.8-8.2c-1.6.9-2.8 1.9-3.5 2.8s-1 1.9-1 3.1c0 1.4.6 2.5 1.8 3.3s2.8 1.3 4.7 1.3c2.6-.2 4.8-.9 6.8-2.3zm-8.5-22.6a3.04 3.04 0 0 0-1.1 2.4c0 .7.2 1.4.6 2.1.4.6 1.1 1.5 2.2 2.6 1.8-.9 3-1.8 3.7-2.5a3.41 3.41 0 0 0 1-2.4c0-.9-.3-1.6-.9-2.2s-1.5-.8-2.7-.8c-1.2-.2-2.1.1-2.8.8zm49.8 28.7c-3-1.6-5.4-3.9-7.1-6.7-1.7-2.9-2.6-6.1-2.6-9.7s.9-6.9 2.6-9.7c1.7-2.9 4.1-5.1 7.1-6.7s6.4-2.4 10.1-2.4c3.2 0 6 .6 8.6 1.7s4.7 2.7 6.4 4.8l-5.4 5c-2.5-2.9-5.5-4.3-9.2-4.3-2.3 0-4.3.5-6 1.5-1.8 1-3.2 2.4-4.1 4.1-1 1.8-1.5 3.8-1.5 6 0 2.3.5 4.3 1.5 6 1 1.8 2.4 3.2 4.1 4.1 1.8 1 3.8 1.5 6 1.5 3.6 0 6.7-1.4 9.2-4.3l5.4 5c-1.7 2.1-3.9 3.7-6.5 4.8s-5.4 1.7-8.6 1.7c-3.7 0-7-.8-10-2.4zm34.7.3c-2.3-1.2-4.2-2.9-5.5-5.1s-2-4.7-2-7.5.7-5.3 2-7.5 3.2-3.9 5.5-5.1 5-1.9 8-1.9 5.6.6 7.9 1.9c2.3 1.2 4.2 2.9 5.5 5.1s2 4.7 2 7.5-.7 5.3-2 7.5-3.1 3.9-5.5 5.1c-2.3 1.2-5 1.9-7.9 1.9-3 0-5.7-.6-8-1.9zm13.1-6.9c1.3-1.4 2-3.3 2-5.7s-.7-4.2-2-5.7c-1.3-1.4-3-2.1-5.1-2.1s-3.8.7-5.2 2.1-2 3.3-2 5.7.7 4.2 2 5.7c1.4 1.4 3.1 2.1 5.2 2.1a6.94 6.94 0 0 0 5.1-2.1zm15.6-30.3h8.1v38.7h-8.1v-38.7zm15.7 0h8.1v38.7h-8.1v-38.7zm43 26.9h-21.2c.4 1.7 1.3 3.1 2.7 4.1s3.2 1.5 5.3 1.5c1.5 0 2.8-.2 3.9-.7 1.1-.4 2.2-1.1 3.2-2.1l4.3 4.7c-2.6 3-6.5 4.5-11.6 4.5-3.2 0-6-.6-8.4-1.9-2.4-1.2-4.3-2.9-5.6-5.1s-2-4.7-2-7.5c0-2.7.7-5.2 2-7.4s3.1-3.9 5.4-5.2c2.3-1.2 4.8-1.9 7.6-1.9 2.7 0 5.2.6 7.5 1.8 2.2 1.2 4 2.9 5.2 5.1 1.3 2.2 1.9 4.8 1.9 7.7 0 .4 0 1.1-.2 2.4zm-19-9c-1.3 1-2 2.5-2.3 4.3H419c-.3-1.8-1-3.2-2.3-4.2-1.3-1.1-2.8-1.6-4.6-1.6s-3.3.5-4.6 1.5zm30.1 19.3c-2.4-1.2-4.2-2.9-5.6-5.1-1.3-2.2-2-4.7-2-7.5s.7-5.3 2-7.5 3.2-3.9 5.6-5.1 5.1-1.9 8.1-1.9 5.5.6 7.7 1.9c2.2 1.2 3.8 3 4.8 5.3l-6.3 3.4c-1.5-2.6-3.6-3.9-6.3-3.9-2.1 0-3.9.7-5.3 2.1s-2.1 3.3-2.1 5.7.7 4.3 2.1 5.7 3.1 2.1 5.3 2.1c2.8 0 4.9-1.3 6.3-3.9l6.3 3.4c-1 2.2-2.6 4-4.8 5.2s-4.8 1.9-7.7 1.9c-3 .1-5.7-.5-8.1-1.8zm43.9.1c-.8.6-1.8 1-2.9 1.3-1.2.3-2.4.4-3.7.4-3.3 0-5.9-.9-7.7-2.6s-2.7-4.2-2.7-7.5v-11.5H460v-6.3h4.3V208h8.1v6.8h7v6.3h-7v11.4c0 1.2.3 2.1.9 2.7s1.5 1 2.6 1c1.3 0 2.4-.3 3.3-1l2.3 5.8zM97 295.9c-2.2-1.2-3.9-2.8-5.1-4.8s-1.9-4.3-1.9-6.9.6-4.9 1.9-6.9c1.2-2 3-3.6 5.1-4.8 2.2-1.2 4.6-1.7 7.4-1.7 2.1 0 4.1.3 5.8 1 1.8.7 3.3 1.7 4.5 3.1l-2.5 2.4c-2-2.1-4.6-3.1-7.6-3.1-2 0-3.8.4-5.5 1.3-1.6.9-2.9 2.1-3.8 3.6s-1.4 3.3-1.4 5.2.5 3.6 1.4 5.2c.9 1.5 2.2 2.7 3.8 3.6s3.4 1.3 5.5 1.3c3 0 5.6-1.1 7.6-3.2l2.5 2.4c-1.2 1.4-2.7 2.4-4.5 3.1s-3.7 1.1-5.8 1.1c-2.8-.2-5.2-.8-7.4-1.9zm24.1.3c-1.6-.9-2.9-2.1-3.8-3.6s-1.4-3.3-1.4-5.2c0-2 .5-3.7 1.4-5.2s2.2-2.7 3.8-3.6 3.5-1.3 5.5-1.3 3.9.4 5.5 1.3 2.9 2.1 3.8 3.6 1.4 3.3 1.4 5.2c0 2-.5 3.7-1.4 5.2s-2.2 2.7-3.8 3.6-3.4 1.3-5.5 1.3-3.8-.4-5.5-1.3zm9.1-2.7c1-.6 1.9-1.4 2.5-2.5s.9-2.3.9-3.7-.3-2.6-.9-3.7-1.4-1.9-2.5-2.5c-1-.6-2.2-.9-3.5-.9s-2.5.3-3.5.9-1.9 1.4-2.5 2.5-.9 2.3-.9 3.7.3 2.6.9 3.7 1.4 1.9 2.5 2.5c1 .6 2.2.9 3.5.9 1.2 0 2.4-.3 3.5-.9zm43-14.1c1.5 1.5 2.3 3.6 2.3 6.5v11.5h-3.7v-11c0-1.9-.5-3.4-1.4-4.4s-2.2-1.5-3.9-1.5c-1.9 0-3.4.6-4.5 1.7s-1.7 2.8-1.7 4.9v10.3h-3.7v-11c0-1.9-.5-3.4-1.4-4.4s-2.2-1.5-3.9-1.5c-1.9 0-3.4.6-4.5 1.7s-1.7 2.8-1.7 4.9v10.3h-3.7v-19.9h3.6v3c.7-1 1.7-1.8 2.9-2.3a10.7 10.7 0 0 1 4.1-.8c1.6 0 3 .3 4.3.9 1.2.6 2.2 1.5 2.9 2.7.8-1.2 1.9-2.1 3.2-2.7 1.4-.7 2.9-1 4.7-1 2.6-.1 4.6.6 6.1 2.1zm24.4-.9c1.6.9 2.8 2 3.7 3.6.9 1.5 1.3 3.3 1.3 5.3s-.4 3.8-1.3 5.3-2.1 2.7-3.7 3.6-3.4 1.3-5.3 1.3a10.19 10.19 0 0 1-4-.8c-1.2-.6-2.3-1.4-3.1-2.4v10.3h-3.7v-27.2h3.6v3.2c.8-1.1 1.9-1.9 3.1-2.5 1.3-.6 2.7-.8 4.2-.8 1.8-.2 3.6.2 5.2 1.1zm-2.2 15c1-.6 1.9-1.4 2.5-2.5s.9-2.3.9-3.7-.3-2.6-.9-3.7-1.4-1.9-2.5-2.5c-1-.6-2.2-.9-3.5-.9s-2.5.3-3.5.9-1.9 1.4-2.5 2.5-.9 2.3-.9 3.6.3 2.6.9 3.7 1.4 1.9 2.5 2.5 2.2.9 3.5.9c1.3.1 2.5-.2 3.5-.8zm17.8-15.4c1.3-.6 2.8-.9 4.6-.9v3.5h-.9c-2 0-3.6.6-4.7 1.7-1.1 1.2-1.7 2.8-1.7 5v9.9h-3.7v-19.9h3.6v3.3c.5-1.1 1.5-2 2.8-2.6zm22.1 1.1c1.5 1.4 2.3 3.4 2.3 6v12h-3.5v-2.6c-.6.9-1.5 1.6-2.7 2.1-1.1.5-2.5.7-4.1.7-2.3 0-4.1-.5-5.5-1.6s-2.1-2.5-2.1-4.2c0-1.8.7-3.2 2-4.2s3.4-1.6 6.3-1.6h5.9v-.7c0-1.6-.5-2.7-1.4-3.6-.9-.8-2.3-1.2-4.1-1.2-1.2 0-2.4.2-3.6.6s-2.1.9-2.9 1.6l-1.5-2.7c1.1-.8 2.3-1.5 3.8-1.9s3-.7 4.7-.7c2.7 0 4.9.7 6.4 2zm-3.7 14.6c1-.6 1.8-1.5 2.2-2.6v-2.8h-5.7c-3.1 0-4.7 1-4.7 3.1 0 1 .4 1.8 1.2 2.4s1.9.9 3.3.9c1.5-.1 2.7-.4 3.7-1zm39.5-15.3c1.6.9 2.8 2 3.7 3.6.9 1.5 1.3 3.3 1.3 5.3s-.4 3.8-1.3 5.3-2.1 2.7-3.7 3.6-3.4 1.3-5.3 1.3a10.19 10.19 0 0 1-4-.8c-1.2-.6-2.3-1.4-3.1-2.4v10.3H255v-27.2h3.6v3.2c.8-1.1 1.9-1.9 3.1-2.5 1.3-.6 2.7-.8 4.2-.8 1.9-.2 3.6.2 5.2 1.1zm-2.1 15c1-.6 1.9-1.4 2.5-2.5s.9-2.3.9-3.7-.3-2.6-.9-3.7-1.4-1.9-2.5-2.5c-1-.6-2.2-.9-3.5-.9s-2.5.3-3.5.9-1.9 1.4-2.5 2.5-.9 2.3-.9 3.6.3 2.6.9 3.7 1.4 1.9 2.5 2.5 2.2.9 3.5.9c1.3.1 2.5-.2 3.5-.8zm14.6 2.7c-1.6-.9-2.9-2.1-3.8-3.6s-1.4-3.3-1.4-5.2c0-2 .5-3.7 1.4-5.2s2.2-2.7 3.8-3.6 3.5-1.3 5.5-1.3 3.9.4 5.5 1.3 2.9 2.1 3.8 3.6 1.4 3.3 1.4 5.2c0 2-.5 3.7-1.4 5.2s-2.2 2.7-3.8 3.6-3.4 1.3-5.5 1.3-3.9-.4-5.5-1.3zm9-2.7c1-.6 1.9-1.4 2.5-2.5s.9-2.3.9-3.7-.3-2.6-.9-3.7-1.4-1.9-2.5-2.5-2.2-.9-3.5-.9-2.5.3-3.5.9-1.9 1.4-2.5 2.5-.9 2.3-.9 3.7.3 2.6.9 3.7 1.4 1.9 2.5 2.5c1 .6 2.2.9 3.5.9s2.5-.3 3.5-.9z"/><use xlink:href="#B"/><path d="M330.2 272.9a2.19 2.19 0 0 1-.7-1.7 2.19 2.19 0 0 1 .7-1.7c.5-.5 1.1-.7 1.8-.7s1.3.2 1.8.7c.5.4.7 1 .7 1.6a2.19 2.19 0 0 1-.7 1.7c-.5.5-1.1.7-1.8.7-.7.1-1.3-.2-1.8-.6zm0 4.5h3.7v19.9h-3.7v-19.9zm26.9 2c1.5 1.5 2.3 3.6 2.3 6.4v11.5h-3.7v-11c0-1.9-.5-3.4-1.4-4.4s-2.3-1.5-4.1-1.5c-2 0-3.6.6-4.8 1.7s-1.7 2.8-1.7 4.9v10.3H340v-19.9h3.6v3c.7-1 1.8-1.8 3-2.4 1.3-.6 2.7-.8 4.4-.8 2.5 0 4.6.7 6.1 2.2z"/><use xlink:href="#C"/><path d="M398.2 288.5h-16.6c.2 1.8 1 3.2 2.4 4.2s3 1.6 5.1 1.6c2.5 0 4.4-.8 5.9-2.4l2.1 2.3c-.9 1.1-2.1 1.9-3.5 2.4-1.4.6-2.9.8-4.6.8-2.2 0-4.1-.4-5.8-1.3s-3-2.1-3.9-3.6-1.4-3.3-1.4-5.3c0-1.9.4-3.7 1.3-5.2.9-1.6 2.1-2.8 3.7-3.6 1.6-.9 3.3-1.3 5.3-1.3s3.7.4 5.2 1.3a10.34 10.34 0 0 1 3.6 3.6c.9 1.5 1.3 3.3 1.3 5.3-.1.4-.1.8-.1 1.2zm-14.6-6.7c-1.2 1.1-1.9 2.4-2.1 4.1h13.2c-.2-1.7-.9-3-2.1-4.1s-2.7-1.6-4.5-1.6-3.3.6-4.5 1.6z"/><use xlink:href="#B" x="98.5"/><path d="M434.2 279.4c1.5 1.5 2.3 3.6 2.3 6.4v11.5h-3.7v-11c0-1.9-.5-3.4-1.4-4.4s-2.3-1.5-4.1-1.5c-2 0-3.6.6-4.8 1.7s-1.7 2.8-1.7 4.9v10.3H417v-19.9h3.6v3c.7-1 1.8-1.8 3-2.4 1.3-.6 2.7-.8 4.4-.8 2.6 0 4.6.7 6.2 2.2zm26.7 9.1h-16.6c.2 1.8 1 3.2 2.4 4.2s3 1.6 5.1 1.6c2.5 0 4.4-.8 5.9-2.4l2.1 2.3c-.9 1.1-2.1 1.9-3.5 2.4-1.4.6-2.9.8-4.6.8-2.2 0-4.1-.4-5.8-1.3s-3-2.1-3.9-3.6-1.4-3.3-1.4-5.3c0-1.9.4-3.7 1.3-5.2.9-1.6 2.1-2.8 3.7-3.6 1.6-.9 3.3-1.3 5.3-1.3s3.7.4 5.2 1.3a10.34 10.34 0 0 1 3.6 3.6c.9 1.5 1.3 3.3 1.3 5.3 0 .4 0 .8-.1 1.2zm-14.5-6.7c-1.2 1.1-1.9 2.4-2.1 4.1h13.2c-.2-1.7-.9-3-2.1-4.1s-2.7-1.6-4.5-1.6-3.3.6-4.5 1.6z"/><use xlink:href="#C" x="99.8"/><path d="M483.3 293.1c.5.5.7 1.1.7 1.8 0 .4 0 .7-.1 1.1s-.3.9-.5 1.6l-1.8 5.2h-2.4l1.4-5.6a2.73 2.73 0 0 1-1.2-.9c-.3-.4-.4-.9-.4-1.4 0-.8.2-1.4.7-1.8.5-.5 1.1-.7 1.9-.7a2.34 2.34 0 0 1 1.7.7zm-353.1 31.1c1.3-.6 2.8-.9 4.6-.9v3.5h-.9c-2 0-3.6.6-4.7 1.7-1.1 1.2-1.7 2.8-1.7 5v9.9h-3.7v-19.9h3.6v3.3c.6-1.1 1.5-2 2.8-2.6zm27.5 10.4H141c.2 1.8 1 3.2 2.4 4.2s3 1.6 5.1 1.6c2.5 0 4.4-.8 5.9-2.4l2.1 2.3c-.9 1.1-2.1 1.9-3.5 2.4-1.4.6-2.9.8-4.6.8-2.2 0-4.1-.4-5.8-1.3s-3-2.1-3.9-3.6c-.9-1.6-1.4-3.3-1.4-5.3 0-1.9.4-3.7 1.3-5.2.9-1.6 2.1-2.8 3.7-3.6 1.6-.9 3.3-1.3 5.3-1.3s3.7.4 5.2 1.3a10.34 10.34 0 0 1 3.6 3.6c.9 1.6 1.3 3.3 1.3 5.3.1.4 0 .8 0 1.2zm-14.5-6.7c-1.2 1.1-1.9 2.4-2.1 4.1h13.2c-.2-1.7-.9-3-2.1-4.1s-2.7-1.6-4.5-1.6c-1.9 0-3.3.5-4.5 1.6zm23.1 14.4c-1.6-.9-2.9-2.1-3.9-3.6-.9-1.5-1.4-3.3-1.4-5.2 0-2 .5-3.7 1.4-5.2s2.2-2.7 3.9-3.6c1.6-.9 3.5-1.3 5.6-1.3a11.48 11.48 0 0 1 5 1.1c1.5.7 2.6 1.8 3.4 3.2l-2.8 1.8c-.6-1-1.4-1.7-2.4-2.1-1-.5-2-.7-3.2-.7-1.3 0-2.5.3-3.6.9s-1.9 1.4-2.5 2.5-.9 2.3-.9 3.7.3 2.6.9 3.7 1.4 1.9 2.5 2.5 2.3.9 3.6.9c1.2 0 2.2-.2 3.2-.7a6.11 6.11 0 0 0 2.4-2.1l2.8 1.7c-.8 1.4-1.9 2.4-3.4 3.2a11.48 11.48 0 0 1-5 1.1c-2.1-.5-4-.9-5.6-1.8zm21.7 0c-1.6-.9-2.9-2.1-3.8-3.6s-1.4-3.3-1.4-5.2c0-2 .5-3.7 1.4-5.2s2.2-2.7 3.8-3.6 3.5-1.3 5.5-1.3 3.9.4 5.5 1.3 2.9 2.1 3.8 3.6 1.4 3.3 1.4 5.2c0 2-.5 3.7-1.4 5.2s-2.2 2.7-3.8 3.6-3.4 1.3-5.5 1.3-3.8-.4-5.5-1.3zm9.1-2.7c1-.6 1.9-1.4 2.5-2.5s.9-2.3.9-3.7-.3-2.6-.9-3.7-1.4-1.9-2.5-2.5c-1-.6-2.2-.9-3.5-.9s-2.5.3-3.5.9-1.9 1.4-2.5 2.5-.9 2.3-.9 3.7.3 2.6.9 3.7 1.4 1.9 2.5 2.5c1 .6 2.2.9 3.5.9 1.3-.1 2.4-.4 3.5-.9zm31.9-16.1v17.2c0 3.5-.9 6.1-2.7 7.7s-4.4 2.5-8 2.5a19.76 19.76 0 0 1-5.5-.8c-1.8-.5-3.2-1.2-4.3-2.2l1.8-2.8c1 .8 2.1 1.4 3.5 1.9s2.9.7 4.4.7c2.4 0 4.2-.6 5.3-1.7s1.7-2.8 1.7-5v-1.6c-.9 1-2 1.8-3.2 2.3-1.3.5-2.7.8-4.2.8-2 0-3.7-.4-5.3-1.2s-2.8-2-3.7-3.4-1.4-3.1-1.4-5 .5-3.5 1.4-5 2.1-2.6 3.7-3.4 3.4-1.2 5.3-1.2a12.17 12.17 0 0 1 4.3.8c1.3.6 2.4 1.4 3.3 2.4v-3.1h3.6zm-7.1 15.1c1.1-.5 1.9-1.3 2.5-2.3s.9-2.1.9-3.4c0-1.9-.7-3.5-2-4.7s-3-1.8-5.1-1.8-3.8.6-5.1 1.8-2 2.7-2 4.7c0 1.3.3 2.4.9 3.4s1.4 1.8 2.5 2.3c1.1.6 2.3.8 3.7.8s2.6-.3 3.7-.8zm32.6-4h-16.6c.2 1.8 1 3.2 2.4 4.2s3 1.6 5.1 1.6c2.5 0 4.4-.8 5.9-2.4l2.1 2.3c-.9 1.1-2.1 1.9-3.5 2.4-1.4.6-2.9.8-4.6.8-2.2 0-4.1-.4-5.8-1.3s-3-2.1-3.9-3.6c-.9-1.6-1.4-3.3-1.4-5.3 0-1.9.4-3.7 1.3-5.2.9-1.6 2.1-2.8 3.7-3.6 1.6-.9 3.3-1.3 5.3-1.3s3.7.4 5.2 1.3a10.34 10.34 0 0 1 3.6 3.6c.9 1.6 1.3 3.3 1.3 5.3 0 .4 0 .8-.1 1.2zm-14.5-6.7c-1.2 1.1-1.9 2.4-2.1 4.1H251c-.2-1.7-.9-3-2.1-4.1s-2.7-1.6-4.5-1.6c-1.7 0-3.2.5-4.4 1.6zm48.6 6.7H272c.2 1.8 1 3.2 2.4 4.2s3 1.6 5.1 1.6c2.5 0 4.4-.8 5.9-2.4l2.1 2.3c-.9 1.1-2.1 1.9-3.5 2.4-1.4.6-2.9.8-4.6.8-2.2 0-4.1-.4-5.8-1.3s-3-2.1-3.9-3.6c-.9-1.6-1.4-3.3-1.4-5.3 0-1.9.4-3.7 1.3-5.2.9-1.6 2.1-2.8 3.7-3.6 1.6-.9 3.3-1.3 5.3-1.3s3.7.4 5.2 1.3a10.34 10.34 0 0 1 3.6 3.6c.9 1.5 1.3 3.3 1.3 5.3 0 .4 0 .8-.1 1.2zm-14.5-6.7c-1.2 1.1-1.9 2.4-2.1 4.1h13.2c-.2-1.7-.9-3-2.1-4.1s-2.7-1.6-4.5-1.6-3.3.5-4.5 1.6z"/><use xlink:href="#D"/><path d="M342.1 342.2c-.5.5-1.2.8-2 1s-1.6.4-2.5.4c-2.1 0-3.7-.5-4.8-1.6s-1.7-2.6-1.7-4.6v-10.9h-3.5v-3h3.5v-4.4h3.7v4.4h5.9v3h-5.9v10.8c0 1.1.3 1.9.8 2.5.6.6 1.3.9 2.4.9s2.1-.3 2.9-.9l1.2 2.4zm4.6-23.2a2.19 2.19 0 0 1-.7-1.7 2.19 2.19 0 0 1 .7-1.7c.5-.5 1.1-.7 1.8-.7s1.3.2 1.8.7c.5.4.7 1 .7 1.6a2.19 2.19 0 0 1-.7 1.7c-.5.5-1.1.7-1.8.7s-1.3-.2-1.8-.6zm-.1 4.5h3.7v19.9h-3.7v-19.9zm29.3 11.1h-16.6c.2 1.8 1 3.2 2.4 4.2s3 1.6 5.1 1.6c2.5 0 4.4-.8 5.9-2.4l2.1 2.3c-.9 1.1-2.1 1.9-3.5 2.4-1.4.6-2.9.8-4.6.8-2.2 0-4.1-.4-5.8-1.3s-3-2.1-3.9-3.6-1.4-3.3-1.4-5.3c0-1.9.4-3.7 1.3-5.2.9-1.6 2.1-2.8 3.7-3.6 1.6-.9 3.3-1.3 5.3-1.3s3.7.4 5.2 1.3a10.34 10.34 0 0 1 3.6 3.6c.9 1.5 1.3 3.3 1.3 5.3 0 .4-.1.8-.1 1.2zm-14.5-6.7c-1.2 1.1-1.9 2.4-2.1 4.1h13.2c-.2-1.7-.9-3-2.1-4.1s-2.7-1.6-4.5-1.6-3.3.5-4.5 1.6z"/><use xlink:href="#D" x="87.3"/><path d="M426.9 315.5v27.9h-3.6v-3.2c-.8 1.1-1.9 1.9-3.1 2.5a9.9 9.9 0 0 1-4.2.9c-2 0-3.8-.4-5.3-1.3-1.6-.9-2.8-2-3.7-3.6-.9-1.5-1.3-3.3-1.3-5.3s.4-3.8 1.3-5.3 2.1-2.7 3.7-3.6 3.4-1.3 5.3-1.3c1.5 0 2.8.3 4.1.8 1.2.5 2.3 1.3 3.1 2.4v-11h3.7zm-7 24.1c1.1-.6 1.9-1.4 2.5-2.5s.9-2.3.9-3.7-.3-2.6-.9-3.7-1.4-1.9-2.5-2.5-2.2-.9-3.5-.9-2.5.3-3.5.9-1.9 1.4-2.5 2.5-.9 2.3-.9 3.7.3 2.6.9 3.7 1.4 1.9 2.5 2.5c1 .6 2.2.9 3.5.9 1.2-.1 2.4-.4 3.5-.9zm28.1-14.3c1.5 1.4 2.3 3.4 2.3 6v12h-3.5v-2.6c-.6.9-1.5 1.6-2.7 2.1s-2.5.7-4.1.7c-2.3 0-4.1-.5-5.5-1.6s-2.1-2.5-2.1-4.2c0-1.8.7-3.2 2-4.2 1.3-1.1 3.4-1.6 6.3-1.6h5.9v-.7c0-1.6-.5-2.7-1.4-3.6s-2.3-1.2-4.1-1.2c-1.2 0-2.4.2-3.6.6s-2.1.9-2.9 1.6l-1.5-2.7c1.1-.8 2.3-1.5 3.8-1.9s3-.7 4.7-.7c2.7 0 4.8.7 6.4 2zm-3.7 14.6c1-.6 1.8-1.5 2.2-2.6v-2.8h-5.7c-3.1 0-4.7 1-4.7 3.1 0 1 .4 1.8 1.2 2.4s1.9.9 3.3.9 2.6-.4 3.7-1z"/></g><path d="M89.9 252.3H484v6.5H89.9z" fill="#e50695"/><defs ><path id="B" d="M310.3 278.1c1.3-.6 2.8-.9 4.6-.9v3.5h-.9c-2 0-3.6.6-4.7 1.7s-1.7 2.8-1.7 5v9.9h-3.7v-19.9h3.6v3.3c.6-1.1 1.5-2 2.8-2.6z"/><path id="C" d="M376.9 296.1c-.5.5-1.2.8-2 1s-1.6.4-2.5.4c-2.1 0-3.7-.5-4.8-1.6s-1.7-2.6-1.7-4.6v-10.9h-3.5v-3h3.5V273h3.7v4.4h5.9v3h-5.9v10.8c0 1.1.3 1.9.8 2.5.6.6 1.3.9 2.4.9s2.1-.3 2.9-.9l1.2 2.4z"/><path id="D" d="M311 325.5c1.5 1.5 2.3 3.6 2.3 6.4v11.5h-3.7v-11c0-1.9-.5-3.4-1.4-4.4s-2.3-1.5-4.1-1.5c-2 0-3.6.6-4.8 1.7s-1.7 2.8-1.7 4.9v10.3h-3.7v-19.9h3.6v3c.7-1 1.8-1.8 3-2.4 1.3-.6 2.7-.8 4.4-.8 2.5 0 4.6.7 6.1 2.2z"/></defs></svg>