<svg xmlns="http://www.w3.org/2000/svg" xmlns:xlink="http://www.w3.org/1999/xlink" viewBox="0 0 578 383.8" xmlns:v="https://vecta.io/nano"><g fill="#5e2a5f"><path d="M344.4 162.1h-95.9a17.31 17.31 0 0 1-17.3-17.3V92.7a17.31 17.31 0 0 1 17.3-17.3h95.9a17.31 17.31 0 0 1 17.3 17.3v52.1a17.31 17.31 0 0 1-17.3 17.3m-95.9-83.3c-7.7 0-13.9 6.3-13.9 13.9v52.1c0 7.7 6.3 13.9 13.9 13.9h95.9c7.7 0 13.9-6.3 13.9-13.9V92.7c0-7.7-6.3-13.9-13.9-13.9h-95.9z"/><path d="M231.1 102.9l-10.5-28.6c-2.7-7.2 1-15.2 8.3-17.9l90-33.2c1.6-.6 3.2-.9 4.8-.9 2 0 4 .4 5.9 1.3 3.4 1.6 6 4.3 7.2 7.8L354 78.2c2 1.3 3.6 3 4.9 5a20.42 20.42 0 0 0-1-4.1l-18-48.8c-1.6-4.3-4.8-7.8-9-9.7a17.5 17.5 0 0 0-13.3-.5l-90 33.2c-9 3.3-13.6 13.3-10.3 22.3l13.7 37.3v-10zm47.9 9.4c.3-3.7-1.7-7.2-4.9-7.8-2.9-.6-5.5 1.1-7.5 4l1.4-20.7c-.9 0-4.9 1.4-5.8 6.3-2.6 17 .3 34.5 2.6 34.5 4.4.1 13.3-5.9 14.2-16.3m-6.7 6.6c-1.4 3.2-4 6.3-5.2 6.3-.6 0-1.2-6.9-.9-11.2s4.6-6.3 6.6-4c1.8 2.6.7 6.1-.5 8.9m-16.6-8.9l-3.5-5.2c-3.2-4.3-2.9-7.2 0-11.8 1.1-2 3.5-4.6 4.6-5.2 0 0-1.7-4.6-10.1 6.6-3.4 4.6-3.4 10.6-1.1 14.1l.9 1.4 2.6 3.7c3.2 4.3 2 7.2-1.1 11.8-1.4 2-3.7 4.6-5.2 5.5 0 0 1.7 4.6 10.9-6.9 4.3-4.5 4.6-10.8 2-14m91.8 41.9h-26c-.6 0-1-.7-1-1.5v-.4c0-.8.5-1.5 1-1.5h26c.6 0 1 .7 1 1.5v.5c.1.7-.4 1.4-1 1.4"/><path d="M346.9 90.1h-62.4c-.9 0-1.7-.7-1.7-1.5v-.5c0-.8.8-1.5 1.7-1.5h62.4c.9 0 1.7.7 1.7 1.5v.5c0 .8-.8 1.5-1.7 1.5m-18.4-53.3l-58.6 21.4c-.9.3-1.8 0-2.1-.8l-.2-.5c-.3-.8.2-1.6 1.1-2l58.6-21.4c.9-.3 1.8 0 2.1.8l.2.5c.3.8-.2 1.7-1.1 2M13.7 205.5h16.6c4 0 7.5.8 10.5 2.3s5.4 3.6 7.1 6.4c1.7 2.7 2.5 5.9 2.5 9.6s-.8 6.8-2.5 9.6c-1.7 2.7-4 4.9-7.1 6.4-3 1.5-6.5 2.3-10.5 2.3H13.7v-36.6zm16.2 29.6c3.6 0 6.6-1 8.7-3 2.2-2 3.3-4.8 3.3-8.3s-1.1-6.2-3.3-8.3c-2.2-2-5.1-3.1-8.7-3.1h-7.7V235h7.7zm53.6-4.8H62.3c.4 1.7 1.3 3.1 2.7 4.1s3.2 1.5 5.3 1.5c1.5 0 2.8-.2 3.9-.7 1.1-.4 2.2-1.1 3.2-2.1l4.3 4.7c-2.6 3-6.5 4.5-11.6 4.5-3.2 0-6-.6-8.4-1.9-2.4-1.2-4.3-2.9-5.6-5.1s-2-4.7-2-7.5c0-2.7.7-5.2 2-7.4s3.1-3.9 5.4-5.2c2.3-1.2 4.8-1.9 7.6-1.9 2.7 0 5.2.6 7.5 1.8 2.2 1.2 4 2.9 5.2 5.1 1.3 2.2 1.9 4.8 1.9 7.7 0 .3-.1 1-.2 2.4zm-19-9c-1.3 1-2 2.5-2.3 4.3H76c-.3-1.8-1-3.2-2.3-4.2-1.3-1.1-2.8-1.6-4.6-1.6-1.8-.1-3.4.4-4.6 1.5zm27.2 20.3c-2.2-.6-4-1.3-5.3-2.2l2.7-5.8a18.57 18.57 0 0 0 4.5 2c1.8.5 3.5.8 5.2.8 3.4 0 5.2-.9 5.2-2.6 0-.8-.5-1.4-1.4-1.7s-2.4-.6-4.3-.9c-2.3-.3-4.2-.7-5.7-1.2s-2.8-1.3-3.9-2.4-1.6-2.8-1.6-4.9a7.75 7.75 0 0 1 1.5-4.7c1-1.4 2.5-2.4 4.5-3.2s4.3-1.1 7-1.1c2 0 4 .2 5.9.7 2 .4 3.6 1 4.9 1.8l-2.7 5.8c-2.5-1.4-5.2-2.1-8.1-2.1-1.7 0-3 .2-3.9.7s-1.3 1.1-1.3 1.9c0 .9.5 1.5 1.4 1.8s2.4.7 4.5 1l5.6 1.2c1.4.4 2.7 1.2 3.8 2.4 1.1 1.1 1.6 2.7 1.6 4.8 0 1.7-.5 3.3-1.6 4.6s-2.6 2.4-4.6 3.2c-2 .7-4.4 1.1-7.1 1.1-2.3-.1-4.6-.4-6.8-1zm30.6-1c-2.4-1.2-4.2-2.9-5.6-5.1-1.3-2.2-2-4.7-2-7.5s.7-5.3 2-7.5 3.2-3.9 5.6-5.1 5.1-1.9 8.1-1.9 5.5.6 7.7 1.9c2.2 1.2 3.8 3 4.8 5.3l-6.3 3.4c-1.5-2.6-3.6-3.9-6.3-3.9-2.1 0-3.9.7-5.3 2.1s-2.1 3.3-2.1 5.7.7 4.3 2.1 5.7 3.1 2.1 5.3 2.1c2.8 0 4.9-1.3 6.3-3.9l6.3 3.4c-1 2.2-2.6 4-4.8 5.2-2.2 1.3-4.8 1.9-7.7 1.9-3 .1-5.7-.6-8.1-1.8zm53.6-26.6v28h-7.7v-3.3c-1.1 1.2-2.4 2.1-3.9 2.8-1.5.6-3.1 1-4.8 1-3.7 0-6.6-1.1-8.8-3.2s-3.2-5.3-3.2-9.4V214h8.1v14.7c0 4.5 1.9 6.8 5.7 6.8 1.9 0 3.5-.6 4.7-1.9s1.8-3.2 1.8-5.7V214h8.1zm34.8 16.3h-21.2c.4 1.7 1.3 3.1 2.7 4.1s3.2 1.5 5.3 1.5c1.5 0 2.8-.2 3.9-.7 1.1-.4 2.2-1.1 3.2-2.1l4.3 4.7c-2.6 3-6.5 4.5-11.6 4.5-3.2 0-6-.6-8.4-1.9-2.4-1.2-4.3-2.9-5.6-5.1s-2-4.7-2-7.5c0-2.7.7-5.2 2-7.4s3.1-3.9 5.4-5.2c2.3-1.2 4.8-1.9 7.6-1.9 2.7 0 5.2.6 7.5 1.8 2.2 1.2 4 2.9 5.2 5.1 1.3 2.2 1.9 4.8 1.9 7.7 0 .3-.1 1-.2 2.4zm-19-9c-1.3 1-2 2.5-2.3 4.3h13.8c-.3-1.8-1-3.2-2.3-4.2-1.3-1.1-2.8-1.6-4.6-1.6-1.8-.1-3.3.4-4.6 1.5zm50.1-4.6c2.1 2.1 3.2 5.2 3.2 9.3v16h-8.1v-14.8c0-2.2-.5-3.9-1.5-5s-2.4-1.6-4.2-1.6c-2.1 0-3.7.6-4.9 1.9s-1.8 3.2-1.8 5.7V242h-8.1v-28h7.8v3.3c1.1-1.2 2.4-2.1 4-2.7s3.4-1 5.3-1c3.3 0 6.2 1 8.3 3.1zm28.6 24c-.8.6-1.8 1-2.9 1.3-1.2.3-2.4.4-3.7.4-3.3 0-5.9-.9-7.7-2.6s-2.7-4.2-2.7-7.5v-11.5H249v-6.3h4.3v-6.8h8.1v6.8h7v6.3h-7v11.4c0 1.2.3 2.1.9 2.7s1.5 1 2.6 1c1.3 0 2.4-.3 3.3-1l2.2 5.8zm9.1-.1c-2.3-1.2-4.2-2.9-5.5-5.1s-2-4.7-2-7.5.7-5.3 2-7.5 3.2-3.9 5.5-5.1 5-1.9 8-1.9 5.6.6 7.9 1.9c2.3 1.2 4.2 2.9 5.5 5.1s2 4.7 2 7.5-.7 5.3-2 7.5-3.1 3.9-5.5 5.1c-2.3 1.2-5 1.9-7.9 1.9-3 0-5.6-.7-8-1.9zm13.1-6.9c1.3-1.4 2-3.3 2-5.7s-.7-4.2-2-5.7c-1.3-1.4-3.1-2.1-5.1-2.1-2.1 0-3.8.7-5.2 2.1s-2 3.3-2 5.7.7 4.2 2 5.7c1.4 1.4 3.1 2.1 5.2 2.1s3.8-.7 5.1-2.1zm51.8-17c2.3 2.1 3.5 5.2 3.5 9.4v16h-7.6v-3.5c-1.5 2.6-4.4 3.9-8.6 3.9-2.2 0-4-.4-5.6-1.1s-2.8-1.7-3.6-3-1.3-2.7-1.3-4.4c0-2.6 1-4.7 2.9-6.2 2-1.5 5-2.2 9.1-2.2h6.5c0-1.8-.5-3.1-1.6-4.1s-2.7-1.4-4.8-1.4c-1.5 0-3 .2-4.4.7s-2.7 1.1-3.7 1.9l-2.9-5.7c1.5-1.1 3.4-1.9 5.5-2.5s4.3-.9 6.6-.9c4.3 0 7.6 1 10 3.1zm-7 19.3c1.1-.6 1.8-1.6 2.3-2.8v-2.9h-5.6c-3.3 0-5 1.1-5 3.3 0 1 .4 1.9 1.2 2.5s1.9.9 3.4.9c1.4 0 2.7-.3 3.7-1zm46.7-32.7V242h-7.8v-3.2c-2 2.4-4.9 3.6-8.8 3.6-2.6 0-5-.6-7.2-1.8s-3.8-2.9-5-5.1-1.8-4.7-1.8-7.6.6-5.4 1.8-7.6 2.9-3.9 5-5.1 4.5-1.8 7.2-1.8c3.6 0 6.4 1.1 8.4 3.4v-13.6h8.2zm-10 30.4c1.4-1.4 2-3.3 2-5.7s-.7-4.2-2-5.7a6.94 6.94 0 0 0-5.1-2.1c-2.1 0-3.8.7-5.2 2.1s-2 3.3-2 5.7.7 4.2 2 5.7c1.4 1.4 3.1 2.1 5.2 2.1a6.94 6.94 0 0 0 5.1-2.1z"/><use xlink:href="#B"/><path d="M412.8 240.6c-2.4-1.2-4.2-2.9-5.6-5.1-1.3-2.2-2-4.7-2-7.5s.7-5.3 2-7.5 3.2-3.9 5.6-5.1 5.1-1.9 8.1-1.9 5.5.6 7.7 1.9c2.2 1.2 3.8 3 4.8 5.3l-6.3 3.4c-1.5-2.6-3.6-3.9-6.3-3.9-2.1 0-3.9.7-5.3 2.1s-2.1 3.3-2.1 5.7.7 4.3 2.1 5.7 3.1 2.1 5.3 2.1c2.8 0 4.9-1.3 6.3-3.9l6.3 3.4c-1 2.2-2.6 4-4.8 5.2s-4.8 1.9-7.7 1.9c-3 .1-5.7-.6-8.1-1.8z"/><use xlink:href="#B" x="46.5"/><path d="M459.2 240.6c-2.3-1.2-4.2-2.9-5.5-5.1s-2-4.7-2-7.5.7-5.3 2-7.5 3.2-3.9 5.5-5.1 5-1.9 8-1.9 5.6.6 7.9 1.9c2.3 1.2 4.2 2.9 5.5 5.1s2 4.7 2 7.5-.7 5.3-2 7.5-3.1 3.9-5.5 5.1c-2.3 1.2-5 1.9-7.9 1.9-3 0-5.6-.7-8-1.9zm13.1-6.9c1.3-1.4 2-3.3 2-5.7s-.7-4.2-2-5.7c-1.3-1.4-3-2.1-5.1-2.1s-3.8.7-5.2 2.1-2 3.3-2 5.7.7 4.2 2 5.7c1.4 1.4 3.1 2.1 5.2 2.1 2 0 3.8-.7 5.1-2.1zm41.1-17c2.1 2.1 3.2 5.2 3.2 9.3v16h-8.1v-14.8c0-2.2-.5-3.9-1.5-5s-2.4-1.6-4.2-1.6c-2.1 0-3.7.6-4.9 1.9s-1.8 3.2-1.8 5.7V242H488v-28h7.8v3.3c1.1-1.2 2.4-2.1 4-2.7s3.4-1 5.3-1c3.4 0 6.2 1 8.3 3.1zm31.9 0c2.3 2.1 3.5 5.2 3.5 9.4v16h-7.6v-3.5c-1.5 2.6-4.4 3.9-8.6 3.9-2.2 0-4-.4-5.6-1.1s-2.8-1.7-3.6-3-1.3-2.7-1.3-4.4c0-2.6 1-4.7 2.9-6.2 2-1.5 5-2.2 9.1-2.2h6.5c0-1.8-.5-3.1-1.6-4.1s-2.7-1.4-4.8-1.4c-1.5 0-3 .2-4.4.7s-2.7 1.1-3.7 1.9l-2.9-5.7c1.5-1.1 3.4-1.9 5.5-2.5s4.3-.9 6.6-.9c4.3 0 7.7 1 10 3.1zm-6.9 19.3c1.1-.6 1.8-1.6 2.3-2.8v-2.9h-5.6c-3.3 0-5 1.1-5 3.3 0 1 .4 1.9 1.2 2.5s1.9.9 3.4.9c1.4 0 2.6-.3 3.7-1zm17.8-32.7h8.1V242h-8.1v-38.7zM43.1 270.7V297h-3.8v-23h-6.1v-3.3h9.9zm11.2 25c-1.7-1.1-3-2.6-3.9-4.6-1-2-1.4-4.4-1.4-7.2s.5-5.2 1.4-7.2c1-2 2.3-3.6 3.9-4.6s3.6-1.6 5.7-1.6 4 .5 5.7 1.6 3 2.6 3.9 4.6c1 2 1.4 4.4 1.4 7.2s-.5 5.2-1.4 7.2c-1 2-2.3 3.6-3.9 4.6-1.7 1.1-3.6 1.6-5.7 1.6s-4-.6-5.7-1.6zm11-4.4c1.3-1.7 2-4.2 2-7.5s-.7-5.8-2-7.5-3-2.6-5.2-2.6-3.9.9-5.2 2.6-2 4.2-2 7.5.7 5.8 2 7.5 3.1 2.6 5.2 2.6 3.9-.8 5.2-2.6zm10.8-8.5c-1.2-1.3-1.7-3.1-1.7-5.2s.6-3.9 1.7-5.2a5.97 5.97 0 0 1 4.6-2c1.9 0 3.4.7 4.5 2s1.7 3 1.7 5.2-.6 3.9-1.7 5.2-2.7 2-4.5 2-3.4-.7-4.6-2zm7.4-1.5c.7-.9 1-2.1 1-3.7s-.3-2.8-1-3.7-1.6-1.3-2.8-1.3-2.1.5-2.8 1.4-1 2.1-1 3.7.3 2.8 1 3.7 1.6 1.4 2.8 1.4c1.2-.1 2.1-.6 2.8-1.5zM97 270.7h3L81.5 297h-3L97 270.7zm-3.7 24.5c-1.1-1.3-1.7-3-1.7-5.2s.6-3.9 1.7-5.2 2.7-2 4.5-2 3.4.7 4.6 2 1.7 3.1 1.7 5.2-.6 3.9-1.7 5.2a5.97 5.97 0 0 1-4.6 2c-1.9 0-3.4-.7-4.5-2zm7.3-1.5c.7-.9 1-2.1 1-3.7s-.3-2.8-1-3.7-1.6-1.4-2.8-1.4-2.1.4-2.8 1.3-1 2.1-1 3.7.3 2.8 1 3.7 1.6 1.3 2.8 1.3c1.2.1 2.1-.3 2.8-1.2zm37.4-5.5h-16.6c.2 1.8 1 3.2 2.4 4.2s3 1.6 5.1 1.6c2.5 0 4.4-.8 5.9-2.4l2.1 2.3c-.9 1.1-2.1 1.9-3.5 2.4-1.4.6-2.9.8-4.6.8-2.2 0-4.1-.4-5.8-1.3s-3-2.1-3.9-3.6c-.9-1.6-1.4-3.3-1.4-5.3 0-1.9.4-3.7 1.3-5.2.9-1.6 2.1-2.8 3.7-3.6 1.6-.9 3.3-1.3 5.3-1.3s3.7.4 5.2 1.3a10.34 10.34 0 0 1 3.6 3.6c.9 1.6 1.3 3.3 1.3 5.3 0 .4-.1.8-.1 1.2zm-14.6-6.7c-1.2 1.1-1.9 2.4-2.1 4.1h13.2c-.2-1.7-.9-3-2.1-4.1s-2.7-1.6-4.5-1.6-3.3.5-4.5 1.6zm37-2.4c1.5 1.5 2.3 3.6 2.3 6.4V297H159v-11c0-1.9-.5-3.4-1.4-4.4-1-1-2.3-1.5-4.1-1.5-2 0-3.6.6-4.8 1.7s-1.7 2.8-1.7 4.9V297h-3.7v-19.9h3.6v3c.7-1 1.8-1.8 3-2.4s2.7-.8 4.4-.8c2.5 0 4.5.7 6.1 2.2zm31.1 16.7c-.5.5-1.2.8-2 1s-1.6.4-2.5.4c-2.1 0-3.7-.5-4.8-1.6s-1.7-2.6-1.7-4.6v-11H177v-3h3.5v-4.4h3.7v4.4h5.9v3h-5.9v10.8c0 1.1.3 1.9.8 2.5.6.6 1.3.9 2.4.9s2.1-.3 2.9-.9l1.2 2.5zm23.6-18.7V297h-3.5v-3c-.7 1-1.7 1.8-3 2.4-1.2.6-2.6.8-4 .8-2.7 0-4.9-.7-6.5-2.2s-2.4-3.6-2.4-6.5V277h3.7v11c0 1.9.5 3.4 1.4 4.4 1 1 2.3 1.5 4.1 1.5 2 0 3.5-.6 4.6-1.7 1.1-1.2 1.7-2.8 1.7-4.9V277h3.9zm33.7 1c1.6.9 2.8 2 3.7 3.6.9 1.5 1.3 3.3 1.3 5.3s-.4 3.8-1.3 5.3-2.1 2.7-3.7 3.6-3.4 1.3-5.3 1.3a10.19 10.19 0 0 1-4-.8c-1.2-.6-2.3-1.4-3.1-2.4v10.3h-3.7v-27.2h3.6v3.2c.8-1.1 1.9-1.9 3.1-2.5 1.3-.6 2.7-.8 4.2-.8 1.9-.1 3.7.3 5.2 1.1zm-2.1 15c1-.6 1.9-1.4 2.5-2.5s.9-2.3.9-3.7-.3-2.6-.9-3.7-1.4-1.9-2.5-2.5c-1-.6-2.2-.9-3.5-.9s-2.5.3-3.5.9-1.9 1.4-2.5 2.5-.9 2.3-.9 3.6.3 2.6.9 3.7 1.4 1.9 2.5 2.5 2.2.9 3.5.9c1.3.1 2.5-.2 3.5-.8zm18.7-15.3c1.3-.6 2.8-.9 4.6-.9v3.5h-.9c-2 0-3.6.6-4.7 1.7-1.1 1.2-1.7 2.8-1.7 5v9.9H259v-19.9h3.6v3.3c.6-1.2 1.6-2 2.8-2.6zm9.3-5.3a2.19 2.19 0 0 1-.7-1.7 2.19 2.19 0 0 1 .7-1.7c.5-.5 1.1-.7 1.8-.7s1.3.2 1.8.7c.5.4.7 1 .7 1.6a2.19 2.19 0 0 1-.7 1.7c-.5.5-1.1.7-1.8.7-.7.1-1.3-.1-1.8-.6zm0 4.6h3.7V297h-3.7v-19.9zm42.6 1.9c1.5 1.5 2.3 3.6 2.3 6.5V297h-3.7v-11c0-1.9-.5-3.4-1.4-4.4s-2.2-1.5-3.9-1.5c-1.9 0-3.4.6-4.5 1.7s-1.7 2.8-1.7 4.9V297h-3.7v-11c0-1.9-.5-3.4-1.4-4.4s-2.2-1.5-3.9-1.5c-1.9 0-3.4.6-4.5 1.7s-1.7 2.8-1.7 4.9V297h-3.7v-19.9h3.6v3c.7-1 1.7-1.8 2.9-2.3a10.7 10.7 0 0 1 4.1-.8c1.6 0 3 .3 4.3.9 1.2.6 2.2 1.5 2.9 2.7.8-1.2 1.9-2.1 3.2-2.7s2.9-1 4.7-1c2.5 0 4.5.7 6.1 2.1zm27.7 9.2h-16.6c.2 1.8 1 3.2 2.4 4.2s3 1.6 5.1 1.6c2.5 0 4.4-.8 5.9-2.4l2.1 2.3c-.9 1.1-2.1 1.9-3.5 2.4-1.4.6-2.9.8-4.6.8-2.2 0-4.1-.4-5.8-1.3s-3-2.1-3.9-3.6-1.4-3.3-1.4-5.3c0-1.9.4-3.7 1.3-5.2.9-1.6 2.1-2.8 3.7-3.6 1.6-.9 3.3-1.3 5.3-1.3s3.7.4 5.2 1.3a10.34 10.34 0 0 1 3.6 3.6c.9 1.5 1.3 3.3 1.3 5.3-.1.4-.1.8-.1 1.2zm-14.6-6.7c-1.2 1.1-1.9 2.4-2.1 4.1h13.2c-.2-1.7-.9-3-2.1-4.1s-2.7-1.6-4.5-1.6-3.3.5-4.5 1.6zm26.2-3.7c1.3-.6 2.8-.9 4.6-.9v3.5h-.9c-2 0-3.6.6-4.7 1.7s-1.7 2.8-1.7 5v9.9h-3.7v-19.9h3.6v3.3c.6-1.2 1.5-2 2.8-2.6zm23.2 1.1c1.5 1.4 2.3 3.4 2.3 6v12h-3.5v-2.6c-.6.9-1.5 1.6-2.7 2.1s-2.5.7-4.1.7c-2.3 0-4.1-.5-5.5-1.6s-2.1-2.5-2.1-4.2c0-1.8.7-3.2 2-4.2 1.3-1.1 3.4-1.6 6.3-1.6h5.9v-.7c0-1.6-.5-2.7-1.4-3.6s-2.3-1.2-4.1-1.2c-1.2 0-2.4.2-3.6.6s-2.1.9-2.9 1.6l-1.5-2.7c1.1-.8 2.3-1.5 3.8-1.9s3-.7 4.7-.7c2.7 0 4.9.6 6.4 2zm-3.7 14.6c1-.6 1.8-1.5 2.2-2.6v-2.8h-5.7c-3.1 0-4.7 1-4.7 3.1 0 1 .4 1.8 1.2 2.4s1.9.9 3.3.9 2.6-.4 3.7-1zm26.6 2.4c-1.6-.9-2.9-2.1-3.9-3.6-.9-1.5-1.4-3.3-1.4-5.2 0-2 .5-3.7 1.4-5.2s2.2-2.7 3.9-3.6c1.6-.9 3.5-1.3 5.6-1.3a11.48 11.48 0 0 1 5 1.1c1.5.7 2.6 1.8 3.4 3.2l-2.8 1.8c-.6-1-1.4-1.7-2.4-2.1s-2-.7-3.2-.7c-1.3 0-2.5.3-3.6.9s-1.9 1.4-2.5 2.5-.9 2.3-.9 3.7.3 2.6.9 3.7 1.4 1.9 2.5 2.5 2.3.9 3.6.9c1.2 0 2.2-.2 3.2-.7a6.11 6.11 0 0 0 2.4-2.1l2.8 1.7c-.8 1.4-1.9 2.4-3.4 3.2a11.48 11.48 0 0 1-5 1.1c-2.1-.5-4-1-5.6-1.8zm21.7 0c-1.6-.9-2.9-2.1-3.8-3.6s-1.4-3.3-1.4-5.2c0-2 .5-3.7 1.4-5.2s2.2-2.7 3.8-3.6 3.5-1.3 5.5-1.3 3.9.4 5.5 1.3 2.9 2.1 3.8 3.6 1.4 3.3 1.4 5.2c0 2-.5 3.7-1.4 5.2s-2.2 2.7-3.8 3.6-3.4 1.3-5.5 1.3c-2 0-3.8-.5-5.5-1.3zm9.1-2.8c1-.6 1.9-1.4 2.5-2.5s.9-2.3.9-3.7-.3-2.6-.9-3.7-1.4-1.9-2.5-2.5-2.2-.9-3.5-.9-2.5.3-3.5.9-1.9 1.4-2.5 2.5-.9 2.3-.9 3.7.3 2.6.9 3.7 1.4 1.9 2.5 2.5c1 .6 2.2.9 3.5.9s2.4-.3 3.5-.9zm44-14.1c1.5 1.5 2.3 3.6 2.3 6.5V297h-3.7v-11c0-1.9-.5-3.4-1.4-4.4s-2.2-1.5-3.9-1.5c-1.9 0-3.4.6-4.5 1.7s-1.7 2.8-1.7 4.9V297h-3.7v-11c0-1.9-.5-3.4-1.4-4.4s-2.2-1.5-3.9-1.5c-1.9 0-3.4.6-4.5 1.7s-1.7 2.8-1.7 4.9V297h-3.7v-19.9h3.6v3c.7-1 1.7-1.8 2.9-2.3a10.7 10.7 0 0 1 4.1-.8c1.6 0 3 .3 4.3.9 1.2.6 2.2 1.5 2.9 2.7.8-1.2 1.9-2.1 3.2-2.7s2.9-1 4.7-1c2.6 0 4.6.7 6.1 2.1zm25.4-.9c1.6.9 2.8 2 3.7 3.6.9 1.5 1.3 3.3 1.3 5.3s-.4 3.8-1.3 5.3-2.1 2.7-3.7 3.6-3.4 1.3-5.3 1.3a10.19 10.19 0 0 1-4-.8c-1.2-.5-2.3-1.4-3.1-2.4v10.3h-3.7v-27.2h3.6v3.2c.8-1.1 1.9-1.9 3.1-2.5 1.3-.6 2.7-.8 4.2-.8 1.8-.1 3.6.3 5.2 1.1zm-2.2 15c1-.6 1.9-1.4 2.5-2.5s.9-2.3.9-3.7-.3-2.6-.9-3.7-1.4-1.9-2.5-2.5c-1-.6-2.2-.9-3.5-.9s-2.5.3-3.5.9-1.9 1.4-2.5 2.5-.9 2.3-.9 3.6.3 2.6.9 3.7 1.4 1.9 2.5 2.5 2.2.9 3.5.9c1.3.1 2.5-.2 3.5-.8zm18.8-15.3c1.3-.6 2.8-.9 4.6-.9v3.5h-.9c-2 0-3.6.6-4.7 1.7s-1.7 2.8-1.7 5v9.9H513v-19.9h3.6v3.3c.6-1.2 1.6-2 2.9-2.6zm23.1 1.1c1.5 1.4 2.3 3.4 2.3 6v12h-3.5v-2.6c-.6.9-1.5 1.6-2.7 2.1s-2.5.7-4.1.7c-2.3 0-4.1-.5-5.5-1.6s-2.1-2.5-2.1-4.2c0-1.8.7-3.2 2-4.2 1.3-1.1 3.4-1.6 6.3-1.6h5.9v-.7c0-1.6-.5-2.7-1.4-3.6s-2.3-1.2-4.1-1.2c-1.2 0-2.4.2-3.6.6s-2.1.9-2.9 1.6l-1.5-2.7c1.1-.8 2.3-1.5 3.8-1.9s3-.7 4.7-.7c2.7 0 4.9.6 6.4 2zm-3.7 14.6c1-.6 1.8-1.5 2.2-2.6v-2.8h-5.7c-3.1 0-4.7 1-4.7 3.1 0 1 .4 1.8 1.2 2.4s1.9.9 3.3.9 2.7-.4 3.7-1zM69.8 341.9c-1.6-.9-2.9-2.1-3.9-3.6-.9-1.5-1.4-3.3-1.4-5.2 0-2 .5-3.7 1.4-5.2s2.2-2.7 3.9-3.6c1.6-.9 3.5-1.3 5.6-1.3a11.48 11.48 0 0 1 5 1.1c1.5.7 2.6 1.8 3.4 3.2l-2.8 1.8c-.6-1-1.4-1.7-2.4-2.1-1-.5-2-.7-3.2-.7-1.3 0-2.5.3-3.6.9s-1.9 1.4-2.5 2.5-.9 2.3-.9 3.7.3 2.6.9 3.7 1.4 1.9 2.5 2.5 2.3.9 3.6.9c1.2 0 2.2-.2 3.2-.7a6.11 6.11 0 0 0 2.4-2.1l2.8 1.7c-.8 1.4-1.9 2.4-3.4 3.2a11.48 11.48 0 0 1-5 1.1c-2.1-.4-4-.9-5.6-1.8zm21.7 0c-1.6-.9-2.9-2.1-3.8-3.6s-1.4-3.3-1.4-5.2c0-2 .5-3.7 1.4-5.2s2.2-2.7 3.8-3.6S95 323 97 323s3.9.4 5.5 1.3 2.9 2.1 3.8 3.6 1.4 3.3 1.4 5.2c0 2-.5 3.7-1.4 5.2s-2.2 2.7-3.8 3.6-3.4 1.3-5.5 1.3-3.8-.4-5.5-1.3zm9.1-2.7c1-.6 1.9-1.4 2.5-2.5s.9-2.3.9-3.7-.3-2.6-.9-3.7-1.4-1.9-2.5-2.5c-1-.6-2.2-.9-3.5-.9s-2.5.3-3.5.9-1.9 1.4-2.5 2.5-.9 2.3-.9 3.7.3 2.6.9 3.7 1.4 1.9 2.5 2.5c1 .6 2.2.9 3.5.9 1.2 0 2.4-.3 3.5-.9zm29.4-14.1c1.5 1.5 2.3 3.6 2.3 6.4V343h-3.7v-11c0-1.9-.5-3.4-1.4-4.4-1-1-2.3-1.5-4.1-1.5-2 0-3.6.6-4.8 1.7s-1.7 2.8-1.7 4.9V343h-3.7v-19.9h3.6v3c.7-1 1.8-1.8 3-2.4s2.7-.8 4.4-.8c2.5 0 4.5.8 6.1 2.2z"/><use xlink:href="#C"/><use xlink:href="#D"/><use xlink:href="#C" x="52.7"/><path d="M232.3 325c1.5 1.4 2.3 3.4 2.3 6v12H231v-2.6c-.6.9-1.5 1.6-2.7 2.1-1.1.5-2.5.7-4.1.7-2.3 0-4.1-.5-5.5-1.6s-2.1-2.5-2.1-4.2c0-1.8.7-3.2 2-4.2s3.4-1.6 6.3-1.6h5.9v-.7c0-1.6-.5-2.7-1.4-3.6-.9-.8-2.3-1.2-4.1-1.2-1.2 0-2.4.2-3.6.6s-2.1.9-2.9 1.6l-1.5-2.7c1.1-.8 2.3-1.5 3.8-1.9s3-.7 4.7-.7c2.8-.1 4.9.6 6.5 2zm-3.7 14.6c1-.6 1.8-1.5 2.2-2.6v-2.8h-5.7c-3.1 0-4.7 1-4.7 3.1 0 1 .4 1.8 1.2 2.4s1.9.9 3.3.9c1.4-.1 2.6-.4 3.7-1zm19.2-15.8c1.3-.6 2.8-.9 4.6-.9v3.5h-.9c-2 0-3.6.6-4.7 1.7-1.1 1.2-1.7 2.8-1.7 5v9.9h-3.7v-19.9h3.6v3.3c.6-1.1 1.6-2 2.8-2.6zm4.3 26.4c-.8-.2-1.4-.5-1.9-.9l1.2-2.8c.8.6 1.8.9 3 .9 1 0 1.7-.3 2.3-.9.5-.6.8-1.5.8-2.6V323h3.7v20.8c0 2.1-.6 3.7-1.7 4.8-1.1 1.2-2.7 1.8-4.8 1.8-1 .1-1.8 0-2.6-.2zm5.4-31.6a2.19 2.19 0 0 1-.7-1.7 2.19 2.19 0 0 1 .7-1.7c.5-.5 1.1-.7 1.8-.7s1.3.2 1.8.7c.5.4.7 1 .7 1.6a2.19 2.19 0 0 1-.7 1.7c-.5.5-1.1.7-1.8.7-.7.1-1.3-.1-1.8-.6zm29.2 15.7h-16.6c.2 1.8 1 3.2 2.4 4.2s3 1.6 5.1 1.6c2.5 0 4.4-.8 5.9-2.4l2.1 2.3c-.9 1.1-2.1 1.9-3.5 2.4-1.4.6-2.9.8-4.6.8-2.2 0-4.1-.4-5.8-1.3s-3-2.1-3.9-3.6c-.9-1.6-1.4-3.3-1.4-5.3 0-1.9.4-3.7 1.3-5.2.9-1.6 2.1-2.8 3.7-3.6 1.6-.9 3.3-1.3 5.3-1.3s3.7.4 5.2 1.3a10.34 10.34 0 0 1 3.6 3.6c.9 1.6 1.3 3.3 1.3 5.3 0 .4 0 .7-.1 1.2zm-14.5-6.7c-1.2 1.1-1.9 2.4-2.1 4.1h13.2c-.2-1.7-.9-3-2.1-4.1s-2.7-1.6-4.5-1.6-3.3.5-4.5 1.6zm31.3 14.3c-.5.5-1.2.8-2 1s-1.6.4-2.5.4c-2.1 0-3.7-.5-4.8-1.6s-1.7-2.6-1.7-4.6v-10.9H289v-3h3.5v-4.4h3.7v4.4h5.9v3h-5.9V337c0 1.1.3 1.9.8 2.5.6.6 1.3.9 2.4.9s2.1-.3 2.9-.9l1.2 2.4zM322 325c1.5 1.4 2.3 3.4 2.3 6v12h-3.5v-2.6c-.6.9-1.5 1.6-2.7 2.1s-2.5.7-4.1.7c-2.3 0-4.1-.5-5.5-1.6s-2.1-2.5-2.1-4.2c0-1.8.7-3.2 2-4.2 1.3-1.1 3.4-1.6 6.3-1.6h5.9v-.7c0-1.6-.5-2.7-1.4-3.6s-2.3-1.2-4.1-1.2c-1.2 0-2.4.2-3.6.6s-2.1.9-2.9 1.6l-1.5-2.7c1.1-.8 2.3-1.5 3.8-1.9s3-.7 4.7-.7c2.7-.1 4.9.6 6.4 2zm-3.7 14.6c1-.6 1.8-1.5 2.2-2.6v-2.8h-5.7c-3.1 0-4.7 1-4.7 3.1 0 1 .4 1.8 1.2 2.4s1.9.9 3.3.9 2.7-.4 3.7-1zm25.8 2.8c-1.9-.6-3.4-1.4-4.5-2.4l1.4-2.9c1 .9 2.4 1.6 4 2.2s3.3.8 5 .8c2.2 0 3.9-.4 5-1.1s1.7-1.7 1.7-2.9c0-.9-.3-1.6-.9-2.2s-1.4-1-2.2-1.3c-.9-.3-2.1-.6-3.8-1l-4.9-1.4a7.99 7.99 0 0 1-3.2-2.2c-.9-1-1.3-2.3-1.3-4a7.04 7.04 0 0 1 1.1-3.8c.8-1.1 1.9-2 3.5-2.7 1.5-.7 3.5-1 5.8-1 1.6 0 3.2.2 4.7.6s2.9 1 4 1.7l-1.3 3c-1.1-.7-2.3-1.2-3.6-1.6s-2.6-.5-3.8-.5c-2.2 0-3.8.4-4.9 1.2s-1.6 1.8-1.6 3c0 .9.3 1.6.9 2.2s1.4 1 2.3 1.3 2.2.6 3.7 1l4.9 1.4c1.2.5 2.3 1.2 3.2 2.2s1.3 2.3 1.3 3.9c0 1.4-.4 2.6-1.2 3.8-.8 1.1-1.9 2-3.5 2.7s-3.5 1-5.8 1c-2.2-.1-4.1-.4-6-1z"/><use xlink:href="#D" x="200"/><path d="M408 324.2c1.6.9 2.8 2 3.7 3.6.9 1.5 1.3 3.3 1.3 5.3s-.4 3.8-1.3 5.3-2.1 2.7-3.7 3.6-3.4 1.3-5.3 1.3a9.9 9.9 0 0 1-4.2-.9c-1.3-.6-2.3-1.4-3.1-2.5v3.2h-3.6v-27.9h3.7v11c.8-1.1 1.9-1.8 3.1-2.4a10.7 10.7 0 0 1 4.1-.8c2-.1 3.7.4 5.3 1.2zm-2.1 15c1-.6 1.9-1.4 2.5-2.5s.9-2.3.9-3.7-.3-2.6-.9-3.7-1.4-1.9-2.5-2.5c-1-.6-2.2-.9-3.5-.9s-2.5.3-3.5.9c-1.1.6-1.9 1.4-2.5 2.5s-.9 2.3-.9 3.7.3 2.6.9 3.7 1.4 1.9 2.5 2.5 2.2.9 3.5.9 2.5-.3 3.5-.9z"/><use xlink:href="#D" x="252.6"/><path d="M450.8 323.8c1.3-.6 2.8-.9 4.6-.9v3.5h-.9c-2 0-3.6.6-4.7 1.7s-1.7 2.8-1.7 5v9.9h-3.7v-19.9h3.6v3.3c.6-1.1 1.6-2 2.8-2.6zm25.5.4c1.6.9 2.8 2 3.7 3.6.9 1.5 1.3 3.3 1.3 5.3s-.4 3.8-1.3 5.3-2.1 2.7-3.7 3.6-3.4 1.3-5.3 1.3a9.9 9.9 0 0 1-4.2-.9c-1.3-.6-2.3-1.4-3.1-2.5v3.2H460v-27.9h3.7v11c.8-1.1 1.9-1.8 3.1-2.4a10.7 10.7 0 0 1 4.1-.8c2-.1 3.8.4 5.4 1.2zm-2.2 15c1-.6 1.9-1.4 2.5-2.5s.9-2.3.9-3.7-.3-2.6-.9-3.7-1.4-1.9-2.5-2.5c-1-.6-2.2-.9-3.5-.9s-2.5.3-3.5.9c-1.1.6-1.9 1.4-2.5 2.5s-.9 2.3-.9 3.7.3 2.6.9 3.7 1.4 1.9 2.5 2.5 2.2.9 3.5.9 2.5-.3 3.5-.9zm12.4-20.6a2.19 2.19 0 0 1-.7-1.7 2.19 2.19 0 0 1 .7-1.7c.5-.5 1.1-.7 1.8-.7s1.3.2 1.8.7c.5.4.7 1 .7 1.6a2.19 2.19 0 0 1-.7 1.7c-.5.5-1.1.7-1.8.7-.7.1-1.3-.1-1.8-.6zm-.1 4.5h3.7V343h-3.7v-19.9zm24.8 1.9c1.5 1.4 2.3 3.4 2.3 6v12H510v-2.6c-.6.9-1.5 1.6-2.7 2.1s-2.5.7-4.1.7c-2.3 0-4.1-.5-5.5-1.6s-2.1-2.5-2.1-4.2c0-1.8.7-3.2 2-4.2 1.3-1.1 3.4-1.6 6.3-1.6h5.9v-.7c0-1.6-.5-2.7-1.4-3.6s-2.3-1.2-4.1-1.2c-1.2 0-2.4.2-3.6.6s-2.1.9-2.9 1.6l-1.5-2.7c1.1-.8 2.3-1.5 3.8-1.9s3-.7 4.7-.7c2.7-.1 4.9.6 6.4 2zm-3.7 14.6c1-.6 1.8-1.5 2.2-2.6v-2.8H504c-3.1 0-4.7 1-4.7 3.1 0 1 .4 1.8 1.2 2.4s1.9.9 3.3.9 2.7-.4 3.7-1z"/></g><path d="M13.7 252.5h550.6v6.5H13.7z" fill="#e50695"/><defs ><path id="B" d="M392 208.8c-.9-.9-1.4-1.9-1.4-3.2s.5-2.4 1.4-3.2c.9-.9 2.2-1.3 3.7-1.3s2.7.4 3.6 1.3a4.1 4.1 0 0 1 1.4 3.1c0 1.4-.5 2.5-1.4 3.4s-2.2 1.3-3.6 1.3c-1.5-.1-2.7-.6-3.7-1.4zm-.4 5.2h8.1v28h-8.1v-28z"/><path id="C" d="M161.1 341.9c-.5.5-1.2.8-2 1s-1.6.4-2.5.4c-2.1 0-3.7-.5-4.8-1.6s-1.7-2.6-1.7-4.6v-10.9h-3.5v-3h3.5v-4.4h3.7v4.4h5.9v3h-5.9V337c0 1.1.3 1.9.8 2.5.6.6 1.3.9 2.4.9s2.1-.3 2.9-.9l1.2 2.4z"/><path id="D" d="M184.7 323.1V343h-3.5v-3c-.7 1-1.7 1.8-3 2.4-1.2.6-2.6.8-4 .8-2.7 0-4.9-.7-6.5-2.2s-2.4-3.6-2.4-6.5V323h3.7v11c0 1.9.5 3.4 1.4 4.4 1 1 2.3 1.5 4.1 1.5 2 0 3.5-.6 4.6-1.7 1.1-1.2 1.7-2.8 1.7-4.9V323h3.9z"/></defs></svg>