<svg xmlns="http://www.w3.org/2000/svg" xmlns:xlink="http://www.w3.org/1999/xlink" viewBox="0 0 578 383.8" xmlns:v="https://vecta.io/nano"><g fill="#5e2a5f"><path d="M85.3 234.9v6.8H57.1v-36.5h27.6v6.8H65.5v7.9h16.9v6.6H65.5v8.4h19.8zm31.6-18.6c2.1 2.1 3.2 5.2 3.2 9.3v16.1H112v-14.8c0-2.2-.5-3.9-1.5-5s-2.4-1.6-4.2-1.6c-2.1 0-3.7.6-4.9 1.9s-1.8 3.2-1.8 5.7v13.9h-8.1v-28.1h7.8v3.3c1.1-1.2 2.4-2.1 4-2.7s3.4-1 5.3-1c3.4-.1 6.2 1 8.3 3zm37.9-2.7L143 241.7h-8.4l-11.8-28.1h8.4l7.8 19.1 8-19.1h7.8 0zm9.7-11.1h8.8l-9.4 7.5h-6.4l7-7.5zm-6.3 11.1h8.1v28.1h-8.1v-28.1zm21.1 26.7c-2.3-1.2-4.2-2.9-5.5-5.1s-2-4.7-2-7.5.7-5.3 2-7.5 3.2-3.9 5.5-5.1 5-1.9 8-1.9 5.6.6 7.9 1.9c2.3 1.2 4.2 2.9 5.5 5.1s2 4.7 2 7.5-.7 5.3-2 7.5-3.1 3.9-5.5 5.1c-2.3 1.2-5 1.9-7.9 1.9-3-.1-5.7-.7-8-1.9zm13-7c1.3-1.4 2-3.3 2-5.7s-.7-4.2-2-5.7c-1.3-1.4-3.1-2.1-5.1-2.1-2.1 0-3.8.7-5.2 2.1s-2 3.3-2 5.7.7 4.2 2 5.7c1.4 1.4 3.1 2.1 5.2 2.1s3.8-.7 5.1-2.1zm51.8-17c2.3 2.1 3.5 5.2 3.5 9.4v16H240v-3.5c-1.5 2.6-4.4 3.9-8.6 3.9-2.2 0-4-.4-5.6-1.1s-2.8-1.7-3.6-3-1.3-2.7-1.3-4.4c0-2.6 1-4.7 2.9-6.2 2-1.5 5-2.2 9.1-2.2h6.5c0-1.8-.5-3.1-1.6-4.1s-2.7-1.4-4.8-1.4c-1.5 0-3 .2-4.4.7s-2.7 1.1-3.7 1.9l-2.9-5.7c1.5-1.1 3.4-1.9 5.5-2.5s4.3-.9 6.6-.9c4.3 0 7.7 1.1 10 3.1zm-6.9 19.4c1.1-.6 1.8-1.6 2.3-2.8V230h-5.6c-3.3 0-5 1.1-5 3.3 0 1 .4 1.9 1.2 2.5s1.9.9 3.4.9c1.3-.1 2.6-.4 3.7-1zm61.1-32.7v38.7h-7.8v-3.2c-2 2.4-4.9 3.6-8.8 3.6-2.6 0-5-.6-7.2-1.8-2.1-1.2-3.8-2.9-5-5.1s-1.8-4.7-1.8-7.6.6-5.4 1.8-7.6 2.9-3.9 5-5.1 4.5-1.8 7.2-1.8c3.6 0 6.4 1.1 8.4 3.4V203h8.2zm-10.1 30.3c1.4-1.4 2-3.3 2-5.7s-.7-4.2-2-5.7a6.94 6.94 0 0 0-5.1-2.1c-2.1 0-3.8.7-5.2 2.1s-2 3.3-2 5.7.7 4.2 2 5.7c1.4 1.4 3.1 2.1 5.2 2.1s3.8-.7 5.1-2.1zm23 7c-2.3-1.2-4.2-2.9-5.5-5.1s-2-4.7-2-7.5.7-5.3 2-7.5 3.2-3.9 5.5-5.1 5-1.9 8-1.9 5.6.6 7.9 1.9c2.3 1.2 4.2 2.9 5.5 5.1s2 4.7 2 7.5-.7 5.3-2 7.5-3.1 3.9-5.5 5.1c-2.3 1.2-5 1.9-7.9 1.9-3-.1-5.7-.7-8-1.9zm13.1-7c1.3-1.4 2-3.3 2-5.7s-.7-4.2-2-5.7c-1.3-1.4-3-2.1-5.1-2.1s-3.8.7-5.2 2.1-2 3.3-2 5.7.7 4.2 2 5.7c1.4 1.4 3.1 2.1 5.2 2.1s3.7-.7 5.1-2.1zm59.9-17c2.1 2.1 3.1 5.2 3.1 9.3v16.1h-8.1v-14.8c0-2.2-.5-3.9-1.4-5s-2.2-1.6-3.9-1.6c-1.9 0-3.4.6-4.5 1.9-1.1 1.2-1.7 3.1-1.7 5.5v14.1h-8.1V227c0-4.4-1.8-6.6-5.3-6.6-1.9 0-3.4.6-4.5 1.9-1.1 1.2-1.7 3.1-1.7 5.5v14.1H340v-28.1h7.8v3.2c1-1.2 2.3-2.1 3.8-2.7s3.2-.9 5-.9c2 0 3.8.4 5.4 1.2s2.9 1.9 3.9 3.4c1.1-1.5 2.6-2.6 4.4-3.4s3.7-1.2 5.8-1.2c3.3-.2 6 .9 8.1 2.9z"/><use xlink:href="#B"/><path d="M415.8 240.3c-2.4-1.2-4.2-2.9-5.6-5.1-1.3-2.2-2-4.7-2-7.5s.7-5.3 2-7.5 3.2-3.9 5.6-5.1 5.1-1.9 8.1-1.9 5.5.6 7.7 1.9c2.2 1.2 3.8 3 4.8 5.3l-6.3 3.4c-1.5-2.6-3.6-3.9-6.3-3.9-2.1 0-3.9.7-5.3 2.1s-2.1 3.3-2.1 5.7.7 4.3 2.1 5.7 3.1 2.1 5.3 2.1c2.8 0 4.9-1.3 6.3-3.9l6.3 3.4c-1 2.2-2.6 4-4.8 5.2s-4.8 1.9-7.7 1.9c-3 0-5.7-.6-8.1-1.8z"/><use xlink:href="#B" x="46.5"/><path d="M456.8 203h8.1v38.7h-8.1V203zm16.1 5.4c-.9-.9-1.4-1.9-1.4-3.2s.5-2.4 1.4-3.2c.9-.9 2.2-1.3 3.7-1.3s2.7.4 3.6 1.3a4.1 4.1 0 0 1 1.4 3.1c0 1.4-.5 2.5-1.4 3.4s-2.2 1.3-3.6 1.3c-1.5-.1-2.7-.5-3.7-1.4zm-.4 5.2h8.1v28.1h-8.1v-28.1zm21.1 26.7c-2.3-1.2-4.2-2.9-5.5-5.1s-2-4.7-2-7.5.7-5.3 2-7.5 3.2-3.9 5.5-5.1 5-1.9 8-1.9 5.6.6 7.9 1.9c2.3 1.2 4.2 2.9 5.5 5.1s2 4.7 2 7.5-.7 5.3-2 7.5-3.1 3.9-5.5 5.1c-2.3 1.2-5 1.9-7.9 1.9s-5.7-.7-8-1.9zm13.1-7c1.3-1.4 2-3.3 2-5.7s-.7-4.2-2-5.7c-1.3-1.4-3.1-2.1-5.1-2.1-2.1 0-3.8.7-5.2 2.1s-2 3.3-2 5.7.7 4.2 2 5.7c1.4 1.4 3.1 2.1 5.2 2.1a6.94 6.94 0 0 0 5.1-2.1z"/></g><path d="M57.1 251.7h459.8v6.5H57.1z" fill="#e50695"/><g fill="#5e2a5f"><path d="M325.9 138.1h-.5a1.47 1.47 0 0 1-1.5-1.5V40.2c0-1.6-1.3-2.9-2.8-2.9h-93.6c-1.5 0-2.8 1.3-2.8 2.9v24.9a1.47 1.47 0 0 1-1.5 1.5h-.5a1.47 1.47 0 0 1-1.5-1.5V40.2c0-3.6 2.9-6.5 6.4-6.5H321c3.5 0 6.4 2.9 6.4 6.5v96.3c0 .9-.7 1.6-1.5 1.6"/><path d="M334 139.9h-47a1.47 1.47 0 0 1-1.5-1.5v-.5a1.47 1.47 0 0 1 1.5-1.5h47a1.47 1.47 0 0 1 1.5 1.5v.5a1.54 1.54 0 0 1-1.5 1.5m51.8 0h-4.1a1.47 1.47 0 0 1-1.5-1.5v-.5a1.47 1.47 0 0 1 1.5-1.5h4.1a3.37 3.37 0 0 0 3.4-3.4V78.6c0-1.1-.5-2-1.3-2.7l-23.4-18.4c-.6-.5-1.4-.7-2.1-.7h-34.9v-3.6h34.9c1.6 0 3.1.5 4.3 1.5L390.1 73c1.7 1.3 2.7 3.4 2.7 5.5v54.3c0 4-3.1 7.1-7 7.1m-124.4 22c-10.3 0-18.6-8.3-18.6-18.6s8.3-18.6 18.6-18.6S280 133 280 143.3s-8.4 18.6-18.6 18.6m0-33.6a15 15 0 1 0 0 30 14.98 14.98 0 0 0 15-15c0-8.2-6.8-15-15-15m96.9 33.6c-10.3 0-18.6-8.3-18.6-18.6s8.3-18.6 18.6-18.6 18.6 8.3 18.6 18.6-8.4 18.6-18.6 18.6m0-33.6a15 15 0 1 0 0 30 14.98 14.98 0 0 0 15-15c0-8.2-6.8-15-15-15m-122.1 11.6h-9.8c-3.3 0-5.9-2.7-5.9-5.9v-15.7a1.8 1.8 0 1 1 3.6 0V134a2.26 2.26 0 0 0 2.3 2.3h9.8a1.47 1.47 0 0 1 1.5 1.5v.5c0 .9-.7 1.6-1.5 1.6"/><use xlink:href="#C"/><use xlink:href="#C" x="-8.2" y="15.3"/><use xlink:href="#C" x="-17.6" y="31.7"/><path d="M372.1 109.4h-30.9c-2.6 0-4.8-2.1-4.8-4.8v-31c0-2.6 2.1-4.8 4.8-4.8h22.1c1.2 0 2.4.5 3.3 1.3l8.9 8.5c.9.9 1.5 2.2 1.5 3.5v22.6c-.1 2.5-2.3 4.7-4.9 4.7m-31-37c-.7 0-1.2.5-1.2 1.2v31c0 .6.5 1.2 1.2 1.2H372c.7 0 1.2-.5 1.2-1.2V82c0-.3-.1-.6-.4-.9l-8.9-8.5c-.2-.2-.5-.3-.8-.3h-22v.1z"/><use xlink:href="#D"/><path d="M157.9 270.2h4.5l-6.2 4.8h-3.3l5-4.8zm-4 7.7h3.6v19.6h-3.6v-19.6zm29 8.4v11.3h-3.6v-10.9c0-3.9-1.9-5.7-5.3-5.7-3.8 0-6.2 2.3-6.2 6.5v10.1h-3.6V278h3.4v3c1.4-2 4-3.2 7.1-3.2 4.8-.1 8.2 2.7 8.2 8.5zm5.9-14.5c0-1.3 1-2.3 2.4-2.3s2.4 1 2.4 2.3-1 2.4-2.4 2.4c-1.3-.1-2.4-1.1-2.4-2.4zm.7 6.1h3.6v19.6h-3.6v-19.6z"/><use xlink:href="#D" x="85.1"/><path d="M237.3 287.7c0-5.9 4.3-10 10.2-10s10.2 4.2 10.2 10-4.3 10-10.2 10c-5.9.1-10.2-4.1-10.2-10zm16.8 0c0-4.2-2.8-6.9-6.6-6.9s-6.6 2.7-6.6 6.9 2.9 6.9 6.6 6.9 6.6-2.7 6.6-6.9zm37-17.6v27.5h-3.4v-3.1c-1.6 2.2-4.1 3.3-7 3.3-5.7 0-9.9-4-9.9-10s4.2-10 9.9-10c2.8 0 5.2 1 6.9 3.2v-10.8h3.5v-.1zm-3.5 17.6c0-4.2-2.9-6.9-6.6-6.9-3.8 0-6.6 2.7-6.6 6.9s2.9 6.9 6.6 6.9c3.7.1 6.6-2.7 6.6-6.9zm27.9 1.2h-15.9c.4 3.4 3.2 5.7 7.1 5.7 2.3 0 4.2-.8 5.7-2.4l2 2.3c-1.8 2.1-4.5 3.2-7.7 3.2-6.3 0-10.6-4.2-10.6-10s4.2-10 9.9-10 9.7 4.1 9.7 10.1c-.1.3-.1.8-.2 1.1zm-15.9-2.5h12.6c-.4-3.3-2.9-5.6-6.3-5.6-3.4-.1-5.9 2.2-6.3 5.6zm29.1 1.3c0-5.9 4.3-10 10.4-10 3.5 0 6.4 1.4 8 4.2l-2.7 1.7a6.21 6.21 0 0 0-5.3-2.8c-3.9 0-6.7 2.7-6.7 6.9 0 4.3 2.9 6.9 6.7 6.9 2.1 0 4.1-.9 5.3-2.8l2.7 1.7c-1.6 2.7-4.5 4.2-8 4.2-6.1.1-10.4-4.1-10.4-10zm20.8 0c0-5.9 4.3-10 10.2-10s10.2 4.2 10.2 10-4.3 10-10.2 10c-5.8.1-10.2-4.1-10.2-10zm16.9 0c0-4.2-2.8-6.9-6.6-6.9s-6.6 2.7-6.6 6.9 2.9 6.9 6.6 6.9 6.6-2.7 6.6-6.9zm41.1-1.4v11.3H404v-10.9c0-3.9-1.9-5.7-5.1-5.7-3.6 0-5.9 2.3-5.9 6.5v10.1h-3.6v-10.9c0-3.9-1.9-5.7-5.1-5.7-3.6 0-5.9 2.3-5.9 6.5v10.1h-3.6V278h3.4v2.9c1.4-2 3.8-3.1 6.8-3.1s5.5 1.2 6.8 3.6c1.5-2.2 4.2-3.6 7.6-3.6 4.8-.1 8.1 2.7 8.1 8.5zm26.9 1.4c0 6-4.2 10-9.9 10-2.8 0-5.2-1.1-6.9-3.2v10.2H414v-26.8h3.4v3.1c1.6-2.2 4.1-3.3 7-3.3 5.8 0 10 4 10 10zm-3.6 0c0-4.2-2.9-6.9-6.6-6.9s-6.6 2.7-6.6 6.9 2.9 6.9 6.6 6.9c3.8.1 6.6-2.7 6.6-6.9zm19.1-10v3.4h-.8c-3.8 0-6.2 2.3-6.2 6.6v9.8h-3.6v-19.6h3.4v3.3c1.3-2.3 3.8-3.5 7.2-3.5zm19.9 8v11.9h-3.4V295c-1.2 1.8-3.4 2.8-6.4 2.8-4.4 0-7.3-2.4-7.3-5.8 0-3.2 2-5.7 7.9-5.7h5.6v-.7c0-3-1.7-4.7-5.3-4.7-2.3 0-4.7.8-6.2 2.1l-1.5-2.7c2-1.6 5-2.5 8.1-2.5 5.5-.1 8.5 2.5 8.5 7.9zm-3.6 5.9v-2.7h-5.5c-3.5 0-4.5 1.4-4.5 3 0 2 1.6 3.2 4.3 3.2 2.7-.1 4.9-1.3 5.7-3.5zM199 342.3v4.2h-2.4v-4.2c-3.6-.2-7.1-1.4-9-3.2l1.4-2.9c1.7 1.6 4.6 2.8 7.6 3v-8.6c-4.1-1-8.4-2.3-8.4-7.3 0-3.7 2.6-6.9 8.4-7.3v-4.2h2.4v4.2c2.8.1 5.6.9 7.5 2.3l-1.2 3c-2-1.3-4.2-2-6.3-2.1v8.6c4.2 1 8.6 2.3 8.6 7.3 0 3.5-2.8 6.7-8.6 7.2zm-2.4-15.3v-8c-3.3.4-4.7 2.1-4.7 4 0 2.3 2 3.3 4.7 4zm7.3 8.2c0-2.4-2.2-3.3-5-4v8c3.5-.4 5-2 5-4zm51.2-6.5c0 8.9-5 13.6-12.3 13.6-2.4 0-4.8-.5-6.4-1.5l1.4-2.9c1.4.9 3.1 1.2 5 1.2 5.3 0 8.6-3.3 8.6-9.8v-.9c-1.5 2.3-4.3 3.4-7.5 3.4-5.2 0-8.9-3.1-8.9-7.9 0-5 4-8.2 9.2-8.2 6.9.1 10.9 4.8 10.9 13zm-4.6-4.9c0-2.7-2.1-5-6.2-5-3.4 0-5.7 2-5.7 5s2.3 5 5.9 5 6-2.2 6-5zm27.4 4.9c0 8.9-5 13.6-12.3 13.6-2.4 0-4.8-.5-6.4-1.5l1.4-2.9c1.4.9 3.1 1.2 5 1.2 5.3 0 8.6-3.3 8.6-9.8v-.9c-1.5 2.3-4.3 3.4-7.5 3.4-5.2 0-8.9-3.1-8.9-7.9 0-5 4-8.2 9.2-8.2 7 .1 10.9 4.8 10.9 13zm-4.5-4.9c0-2.7-2.1-5-6.2-5-3.4 0-5.7 2-5.7 5s2.3 5 5.9 5c3.5 0 6-2.2 6-5zm-61 5.5c0-8.9 5-13.6 12.3-13.6 2.4 0 4.8.5 6.4 1.5l-1.4 2.9c-1.4-.9-3.1-1.2-5-1.2-5.3 0-8.6 3.3-8.6 9.8v.9c1.5-2.3 4.3-3.4 7.5-3.4 5.2 0 8.9 3.1 8.9 7.9 0 5-4 8.2-9.2 8.2-7-.1-10.9-4.8-10.9-13zm4.5 4.9c0 2.7 2.1 5 6.2 5 3.4 0 5.7-2 5.7-5s-2.3-5-5.9-5c-3.5 0-6 2.2-6 5zm96.5-2c0 6-4.2 10-9.9 10-2.8 0-5.2-1.1-6.9-3.2v10.2H293v-26.8h3.4v3.1c1.6-2.2 4.1-3.3 7-3.3 5.8 0 10 4 10 10zm-3.6 0c0-4.2-2.9-6.9-6.6-6.9s-6.6 2.7-6.6 6.9 2.9 6.9 6.6 6.9c3.8 0 6.6-2.7 6.6-6.9zm26.2 1.2h-15.9c.4 3.4 3.2 5.7 7.1 5.7 2.3 0 4.2-.8 5.7-2.4l2 2.3c-1.8 2.1-4.5 3.2-7.7 3.2-6.3 0-10.6-4.2-10.6-10s4.2-10 9.9-10 9.7 4.1 9.7 10.1c-.1.3-.2.8-.2 1.1zm-15.9-2.6h12.6c-.4-3.3-2.9-5.6-6.3-5.6s-6 2.3-6.3 5.6z"/><use xlink:href="#E"/><path d="M357.8 332.2c0-5.9 4.3-10 10.2-10s10.2 4.2 10.2 10-4.3 10-10.2 10-10.2-4.1-10.2-10zm16.8 0c0-4.2-2.8-6.9-6.6-6.9s-6.6 2.7-6.6 6.9 2.9 6.9 6.6 6.9 6.6-2.7 6.6-6.9z"/><use xlink:href="#E" x="42.1"/></g><defs ><path id="B" d="M395 208.4c-.9-.9-1.4-1.9-1.4-3.2s.5-2.4 1.4-3.2c.9-.9 2.2-1.3 3.7-1.3s2.7.4 3.7 1.3a4.1 4.1 0 0 1 1.4 3.1c0 1.4-.5 2.5-1.4 3.4s-2.2 1.3-3.7 1.3-2.7-.5-3.7-1.4zm-.4 5.2h8.1v28.1h-8.1v-28.1z"/><path id="C" d="M250.5 75.9h-50.2a1.47 1.47 0 0 1-1.5-1.5v-.5a1.47 1.47 0 0 1 1.5-1.5h50.2a1.47 1.47 0 0 1 1.5 1.5v.5a1.54 1.54 0 0 1-1.5 1.5"/><path id="D" d="M147.3 286.3v11.3h-3.6v-10.9c0-3.9-1.9-5.7-5.1-5.7-3.6 0-5.9 2.3-5.9 6.5v10.1h-3.6v-10.9c0-3.9-1.9-5.7-5.1-5.7-3.6 0-5.9 2.3-5.9 6.5v10.1h-3.6V278h3.4v2.9c1.4-2 3.8-3.1 6.8-3.1s5.5 1.2 6.8 3.6c1.5-2.2 4.2-3.6 7.6-3.6 5-.1 8.2 2.7 8.2 8.5z"/><path id="E" d="M338.5 340l1.5-2.8c1.7 1.2 4.3 2 6.9 2 3.3 0 4.7-1 4.7-2.7 0-4.4-12.4-.6-12.4-8.4 0-3.5 3.2-5.9 8.2-5.9 2.6 0 5.4.7 7.2 1.8l-1.5 2.8a10.7 10.7 0 0 0-5.7-1.6c-3.1 0-4.6 1.1-4.6 2.7 0 4.6 12.5.9 12.5 8.5 0 3.6-3.3 5.8-8.5 5.8-3.4 0-6.6-1-8.3-2.2z"/></defs></svg>