<svg xmlns="http://www.w3.org/2000/svg" xmlns:xlink="http://www.w3.org/1999/xlink" viewBox="0 0 578 383.8" xmlns:v="https://vecta.io/nano"><path d="M284.5 100.1c-21.8 0-39.6-17.6-39.6-39.3s17.8-39.3 39.6-39.3 39.6 17.6 39.6 39.3-17.8 39.3-39.6 39.3m0-75.6c-20.2 0-36.6 16.3-36.6 36.3s16.4 36.3 36.6 36.3 36.6-16.3 36.6-36.3-16.4-36.3-36.6-36.3m.3 92.4c-3.2 0-6.4-1.2-8.9-3.5l-6.1-5.7c-1.4-1.3-3.1-2.2-5-2.5L253 103c-5.3-1-9.6-5.2-10.5-10.5L240.4 81c-.4-2-1.3-3.7-2.7-5.2l-5.7-5.9c-4.7-4.9-4.9-12.8-.3-17.8l5.8-6.5c1.2-1.3 2-2.9 2.3-4.6l2.5-12c1.1-5.3 5.5-9.4 10.8-10.3l11.3-1.8c2.1-.3 3.9-1.3 5.4-2.7l6.1-5.9c5.1-4.9 13.1-4.9 18.2 0l6.2 5.9c1.5 1.4 3.3 2.4 5.3 2.7l10.1 1.7c5.4.9 9.7 5.1 10.7 10.5l2.1 11c.4 1.9 1.2 3.6 2.5 5l6.3 6.8c4.8 5.2 4.7 13.2-.3 18.2l-5.6 5.6c-1.5 1.5-2.5 3.4-2.8 5.6L326.9 92c-.9 5.6-5.3 10-10.9 10.9l-10.7 1.7c-2.1.3-4 1.3-5.6 2.8l-5.6 5.6c-2.6 2.6-6 3.9-9.3 3.9m.3-109.2c-2.5 0-5 .9-7 2.8l-6.1 5.9c-1.9 1.9-4.4 3.1-7.1 3.5l-11.3 1.8c-4.1.6-7.4 3.8-8.3 7.9l-2.5 12c-.5 2.2-1.5 4.3-3.1 6l-5.8 6.5c-3.5 3.9-3.4 9.9.3 13.7l5.7 5.9c1.8 1.9 3 4.2 3.5 6.7l2.1 11.5a10.25 10.25 0 0 0 8.1 8.1l11.6 2.1a13.78 13.78 0 0 1 6.6 3.3l6.1 5.7c4 3.7 10.1 3.6 14-.3l5.6-5.6c2-2 4.5-3.2 7.2-3.7l10.7-1.7c4.3-.7 7.7-4.1 8.4-8.4l1.7-10.7a12.25 12.25 0 0 1 3.7-7.2l5.6-5.6c3.9-3.9 4-10 .2-14l-6.3-6.8c-1.7-1.8-2.8-4.1-3.3-6.5l-2.1-11c-.8-4.1-4.1-7.4-8.3-8.1l-9.8-1.5c-2.6-.4-5-1.6-7-3.5l-6.2-5.9c-1.9-2-4.4-2.9-6.9-2.9m-25 157.4c-1.2 0-2.3-.7-2.9-1.8l-9.3-18.7c0-.1-.1-.1-.2-.1l-22.1 3.2c-1.3.2-2.6-.4-3.2-1.6-.6-1-.5-2.2 0-3.2l20.2-37.7c.3-.6 1.1-.9 1.7-.5l.4.2c.6.3.9 1.1.5 1.7L225 144.4s-.1.1 0 .2.2.1.2.1l22.1-3.2c1.4-.2 2.7.5 3.3 1.7l9.3 18.7s.1.1.2.1.2-.1.2-.1l13.1-26.3c.3-.6 1.1-.9 1.7-.6l.4.2c.6.3.9 1.1.6 1.7L263 163.4c-.5 1-1.6 1.7-2.9 1.7m48.4 0c-1.2 0-2.3-.7-2.9-1.8L292.5 137c-.3-.6-.1-1.4.6-1.7l.4-.2c.6-.3 1.4-.1 1.7.6l13.1 26.3s.1.1.2.1.2-.1.2-.1l9.3-18.7c.6-1.2 1.9-1.9 3.3-1.7l22.1 3.2s.1 0 .2-.1 0-.2 0-.2l-20.2-37.8c-.3-.6-.1-1.4.5-1.7l.4-.2c.6-.3 1.4-.1 1.7.5l20.2 37.8c.6 1.1.5 2.4-.2 3.3a3.14 3.14 0 0 1-3.1 1.3l-22.1-3.2c-.1 0-.2 0-.2.1l-9.3 18.7c-.5 1.1-1.6 1.8-2.8 1.8m-110.3 58.4h7.7v14.8c-2 1.5-4.3 2.6-6.9 3.4s-5.2 1.2-7.9 1.2c-3.8 0-7.2-.8-10.2-2.4s-5.4-3.9-7.1-6.7c-1.7-2.9-2.6-6.1-2.6-9.7s.9-6.9 2.6-9.7c1.7-2.9 4.1-5.1 7.2-6.7s6.5-2.4 10.3-2.4c3.2 0 6.1.5 8.7 1.6s4.8 2.6 6.6 4.7l-5.4 5c-2.6-2.7-5.8-4.1-9.4-4.1-2.3 0-4.4.5-6.2 1.5s-3.2 2.3-4.2 4.1-1.5 3.8-1.5 6.1.5 4.3 1.5 6c1 1.8 2.4 3.2 4.2 4.1 1.8 1 3.8 1.5 6.1 1.5 2.4 0 4.6-.5 6.6-1.6v-10.7zm36.3-6.5c2.3 2.1 3.5 5.2 3.5 9.4v16h-7.6v-3.5c-1.5 2.6-4.4 3.9-8.6 3.9-2.2 0-4-.4-5.6-1.1s-2.8-1.7-3.6-3-1.3-2.7-1.3-4.4c0-2.6 1-4.7 2.9-6.2 2-1.5 5-2.2 9.1-2.2h6.5c0-1.8-.5-3.1-1.6-4.1s-2.7-1.4-4.8-1.4c-1.5 0-3 .2-4.4.7s-2.7 1.1-3.7 1.9l-2.9-5.7c1.5-1.1 3.4-1.9 5.5-2.5s4.3-.9 6.6-.9c4.3 0 7.6 1 10 3.1zm-7 19.3c1.1-.6 1.8-1.6 2.3-2.8v-2.9h-5.6c-3.3 0-5 1.1-5 3.3 0 1 .4 1.9 1.2 2.5s1.9.9 3.4.9c1.4 0 2.6-.3 3.7-1zm29.5-21.4c1.7-.7 3.6-1 5.7-1v7.5c-.9-.1-1.5-.1-1.8-.1-2.3 0-4.2.7-5.5 2s-2 3.3-2 5.9v13.2h-8.1v-28.1h7.8v3.7c.9-1.3 2.2-2.4 3.9-3.1zm31.7 2.1c2.3 2.1 3.5 5.2 3.5 9.4v16h-7.6v-3.5c-1.5 2.6-4.4 3.9-8.6 3.9-2.2 0-4-.4-5.6-1.1s-2.8-1.7-3.6-3-1.3-2.7-1.3-4.4c0-2.6 1-4.7 2.9-6.2 2-1.5 5-2.2 9.1-2.2h6.5c0-1.8-.5-3.1-1.6-4.1s-2.7-1.4-4.8-1.4c-1.5 0-3 .2-4.4.7s-2.7 1.1-3.7 1.9l-2.9-5.7c1.5-1.1 3.4-1.9 5.5-2.5s4.3-.9 6.6-.9c4.4 0 7.7 1 10 3.1zm-6.9 19.3c1.1-.6 1.8-1.6 2.3-2.8v-2.9h-5.6c-3.3 0-5 1.1-5 3.3 0 1 .4 1.9 1.2 2.5s1.9.9 3.4.9c1.4 0 2.6-.3 3.7-1zM325 217c2.1 2.1 3.2 5.2 3.2 9.3v16.1h-8.1v-14.8c0-2.2-.5-3.9-1.5-5s-2.4-1.6-4.2-1.6c-2.1 0-3.7.6-4.9 1.9s-1.8 3.2-1.8 5.7v13.9h-8.1v-28.1h7.8v3.3c1.1-1.2 2.4-2.1 4-2.7s3.4-1 5.3-1c3.4-.1 6.2.9 8.3 3zm28.7 24c-.8.6-1.8 1-2.9 1.3-1.2.3-2.4.4-3.7.4-3.3 0-5.9-.9-7.7-2.6s-2.7-4.2-2.7-7.5v-11.5h-4.3v-6.3h4.3V208h8.1v6.8h7v6.3h-7v11.4c0 1.2.3 2.1.9 2.7s1.5 1 2.6 1c1.3 0 2.4-.3 3.3-1l2.1 5.8zm10.9-37.8h8.8l-9.4 7.5h-6.4l7-7.5zm-6.3 11.1h8.1v28.1h-8.1v-28.1zm37 2.7c2.3 2.1 3.5 5.2 3.5 9.4v16h-7.6v-3.5c-1.5 2.6-4.4 3.9-8.6 3.9-2.2 0-4-.4-5.6-1.1s-2.8-1.7-3.6-3-1.3-2.7-1.3-4.4c0-2.6 1-4.7 2.9-6.2 2-1.5 5-2.2 9.1-2.2h6.5c0-1.8-.5-3.1-1.6-4.1s-2.7-1.4-4.8-1.4c-1.5 0-3 .2-4.4.7s-2.7 1.1-3.7 1.9l-2.9-5.7c1.5-1.1 3.4-1.9 5.5-2.5s4.3-.9 6.6-.9c4.3 0 7.7 1 10 3.1zm-6.9 19.3c1.1-.6 1.8-1.6 2.3-2.8v-2.9h-5.6c-3.3 0-5 1.1-5 3.3 0 1 .4 1.9 1.2 2.5s1.9.9 3.4.9c1.4 0 2.6-.3 3.7-1z" fill="#5e2a5f"/><g fill="#612166"><path d="M40.1 296.7c-1.9-.6-3.4-1.4-4.5-2.4l1.4-2.9c1 .9 2.4 1.6 4 2.2s3.3.8 5 .8c2.2 0 3.9-.4 5-1.1s1.7-1.7 1.7-2.9c0-.9-.3-1.6-.9-2.2s-1.4-1-2.2-1.3c-.9-.3-2.1-.6-3.8-1l-4.9-1.4c-1.2-.4-2.3-1.2-3.2-2.2s-1.3-2.3-1.3-4a7.04 7.04 0 0 1 1.1-3.8c.7-1.1 1.9-2 3.5-2.7s3.5-1 5.8-1c1.6 0 3.2.2 4.7.6s2.9 1 4 1.7l-1.3 3c-1.1-.7-2.3-1.2-3.6-1.6s-2.6-.5-3.8-.5c-2.2 0-3.8.4-4.9 1.2s-1.6 1.8-1.6 3c0 .9.3 1.6.9 2.2s1.4 1 2.3 1.3 2.2.6 3.7 1l4.9 1.4c1.2.5 2.3 1.2 3.2 2.2s1.3 2.3 1.3 3.9c0 1.4-.4 2.6-1.2 3.8-.8 1.1-1.9 2-3.5 2.7s-3.5 1-5.8 1c-2.2-.1-4.1-.4-6-1zm21.5-23.8a2.19 2.19 0 0 1-.7-1.7 2.19 2.19 0 0 1 .7-1.7c.5-.5 1.1-.7 1.8-.7s1.3.2 1.8.7c.5.4.7 1 .7 1.6a2.19 2.19 0 0 1-.7 1.7c-.5.5-1.1.7-1.8.7s-1.3-.2-1.8-.6zm0 4.5h3.7v19.9h-3.7v-19.9zm38.4 2c1.5 1.5 2.3 3.6 2.3 6.4v11.5h-3.7v-11c0-1.9-.5-3.4-1.4-4.4s-2.3-1.5-4.1-1.5c-2 0-3.6.6-4.8 1.7s-1.7 2.8-1.7 4.9v10.3h-3.7v-19.9h3.6v3c.7-1 1.8-1.8 3-2.4s2.7-.8 4.4-.8c2.4 0 4.5.7 6.1 2.2zm12.6 16.8c-1.6-.9-2.9-2.1-3.8-3.6s-1.4-3.3-1.4-5.2c0-2 .5-3.7 1.4-5.2s2.2-2.7 3.8-3.6 3.5-1.3 5.5-1.3 3.9.4 5.5 1.3 2.9 2.1 3.8 3.6 1.4 3.3 1.4 5.2c0 2-.5 3.7-1.4 5.2s-2.2 2.7-3.8 3.6-3.4 1.3-5.5 1.3-3.9-.4-5.5-1.3zm9-2.7c1-.6 1.9-1.4 2.5-2.5s.9-2.3.9-3.7-.3-2.6-.9-3.7-1.4-1.9-2.5-2.5-2.2-.9-3.5-.9-2.5.3-3.5.9-1.9 1.4-2.5 2.5-.9 2.3-.9 3.7.3 2.6.9 3.7 1.4 1.9 2.5 2.5c1 .6 2.2.9 3.5.9s2.4-.3 3.5-.9zm41.1-5h-16.6c.2 1.8 1 3.2 2.4 4.2 1.4 1.1 3 1.6 5.1 1.6 2.5 0 4.4-.8 5.9-2.4l2.1 2.3c-.9 1.1-2.1 1.9-3.5 2.4-1.4.6-2.9.8-4.6.8-2.2 0-4.1-.4-5.8-1.3s-3-2.1-3.9-3.6-1.4-3.3-1.4-5.3c0-1.9.4-3.7 1.3-5.2.9-1.6 2.1-2.8 3.7-3.6 1.6-.9 3.3-1.3 5.3-1.3s3.7.4 5.2 1.3a10.34 10.34 0 0 1 3.6 3.6c.9 1.6 1.3 3.3 1.3 5.3 0 .4 0 .8-.1 1.2zm-14.5-6.7c-1.2 1.1-1.9 2.4-2.1 4.1h13.2c-.2-1.7-.9-3-2.1-4.1s-2.7-1.6-4.5-1.6-3.3.6-4.5 1.6zm20.8 15.1c-1.5-.4-2.8-1-3.6-1.7l1.5-2.9c.9.6 2 1.1 3.3 1.5a13.2 13.2 0 0 0 3.9.6c3.3 0 4.9-.9 4.9-2.7 0-.6-.2-1.1-.7-1.4-.4-.3-1-.6-1.6-.8-.7-.2-1.6-.3-2.8-.5-1.7-.2-3-.5-4-.9-1-.3-1.9-.9-2.7-1.7s-1.1-1.9-1.1-3.3c0-1.8.8-3.2 2.3-4.3s3.6-1.6 6.2-1.6c1.4 0 2.7.2 4.1.5s2.5.8 3.4 1.3l-1.6 2.9c-1.7-1.1-3.7-1.6-5.9-1.6-1.6 0-2.8.3-3.6.8s-1.2 1.2-1.2 2c0 .7.2 1.2.7 1.5.5.4 1 .7 1.7.8s1.6.4 2.9.6l4 .9c1 .3 1.9.8 2.6 1.6s1.1 1.8 1.1 3.2c0 1.8-.8 3.2-2.4 4.3s-3.7 1.6-6.5 1.6c-1.8-.1-3.4-.3-4.9-.7zm28.7-27.5h3.7v27.9h-3.7v-27.9zm14.1 26.8c-1.6-.9-2.9-2.1-3.8-3.6s-1.4-3.3-1.4-5.2c0-2 .5-3.7 1.4-5.2s2.2-2.7 3.8-3.6 3.5-1.3 5.5-1.3 3.9.4 5.5 1.3 2.9 2.1 3.8 3.6 1.4 3.3 1.4 5.2c0 2-.5 3.7-1.4 5.2s-2.2 2.7-3.8 3.6-3.4 1.3-5.5 1.3-3.8-.4-5.5-1.3zm9.1-2.7c1-.6 1.9-1.4 2.5-2.5s.9-2.3.9-3.7-.3-2.6-.9-3.7-1.4-1.9-2.5-2.5-2.2-.9-3.5-.9-2.5.3-3.5.9-1.9 1.4-2.5 2.5-.9 2.3-.9 3.7.3 2.6.9 3.7 1.4 1.9 2.5 2.5c1 .6 2.2.9 3.5.9s2.4-.3 3.5-.9zm42-16.1v27.2h-3.7v-10.3c-.9 1.1-1.9 1.9-3.1 2.4-1.2.6-2.6.8-4 .8-2 0-3.8-.4-5.3-1.3-1.6-.9-2.8-2-3.7-3.6-.9-1.5-1.3-3.3-1.3-5.3s.4-3.8 1.3-5.3 2.1-2.7 3.7-3.6 3.4-1.3 5.3-1.3c1.5 0 2.9.3 4.2.8 1.3.6 2.3 1.4 3.1 2.5v-3.2h3.5zm-7 16.1c1.1-.6 1.9-1.4 2.5-2.5s.9-2.3.9-3.7-.3-2.6-.9-3.6-1.4-1.9-2.5-2.5c-1-.6-2.2-.9-3.5-.9s-2.5.3-3.5.9-1.9 1.4-2.5 2.5-.9 2.3-.9 3.7.3 2.6.9 3.7 1.4 1.9 2.5 2.5c1 .6 2.2.9 3.5.9 1.2-.1 2.4-.4 3.5-1zm33.2-16.1v19.9h-3.5v-3c-.7 1-1.7 1.8-3 2.4-1.2.6-2.6.8-4 .8-2.7 0-4.9-.7-6.5-2.2s-2.4-3.6-2.4-6.5v-11.5h3.7v11c0 1.9.5 3.4 1.4 4.4 1 1 2.3 1.5 4.1 1.5 2 0 3.5-.6 4.6-1.7 1.1-1.2 1.7-2.8 1.7-4.9v-10.3h3.9zm25.5 11.1H298c.2 1.8 1 3.2 2.4 4.2s3 1.6 5.1 1.6c2.5 0 4.4-.8 5.9-2.4l2.1 2.3c-.9 1.1-2.1 1.9-3.5 2.4-1.4.6-2.9.8-4.6.8-2.2 0-4.1-.4-5.8-1.3s-3-2.1-3.9-3.6-1.4-3.3-1.4-5.3c0-1.9.4-3.7 1.3-5.2.9-1.6 2.1-2.8 3.7-3.6 1.6-.9 3.3-1.3 5.3-1.3s3.7.4 5.2 1.3a10.34 10.34 0 0 1 3.6 3.6c.9 1.5 1.3 3.3 1.3 5.3 0 .4 0 .8-.1 1.2zm-14.5-6.7c-1.2 1.1-1.9 2.4-2.1 4.1h13.2c-.2-1.7-.9-3-2.1-4.1s-2.7-1.6-4.5-1.6-3.3.6-4.5 1.6zm48.6 6.7h-16.6c.2 1.8 1 3.2 2.4 4.2s3 1.6 5.1 1.6c2.5 0 4.4-.8 5.9-2.4l2.1 2.3c-.9 1.1-2.1 1.9-3.5 2.4-1.4.6-2.9.8-4.6.8-2.2 0-4.1-.4-5.8-1.3s-3-2.1-3.9-3.6-1.4-3.3-1.4-5.3c0-1.9.4-3.7 1.3-5.2.9-1.6 2.1-2.8 3.7-3.6 1.6-.9 3.3-1.3 5.3-1.3s3.7.4 5.2 1.3a10.34 10.34 0 0 1 3.6 3.6c.9 1.5 1.3 3.3 1.3 5.3 0 .4 0 .8-.1 1.2zm-14.5-6.7c-1.2 1.1-1.9 2.4-2.1 4.1h13.2c-.2-1.7-.9-3-2.1-4.1s-2.7-1.6-4.5-1.6-3.3.6-4.5 1.6zm20.8 15.1c-1.5-.4-2.8-1-3.6-1.7l1.5-2.9c.9.6 2 1.1 3.3 1.5a13.2 13.2 0 0 0 3.9.6c3.3 0 4.9-.9 4.9-2.7 0-.6-.2-1.1-.7-1.4-.4-.3-1-.6-1.6-.8s-1.6-.3-2.8-.5c-1.7-.2-3-.5-4-.9-1-.3-1.9-.9-2.7-1.7-.7-.8-1.1-1.9-1.1-3.3 0-1.8.8-3.2 2.3-4.3s3.6-1.6 6.2-1.6c1.4 0 2.7.2 4.1.5s2.5.8 3.4 1.3l-1.6 2.9c-1.7-1.1-3.7-1.6-5.9-1.6-1.6 0-2.8.3-3.6.8s-1.2 1.2-1.2 2c0 .7.2 1.2.7 1.5.5.4 1 .7 1.7.8s1.6.4 2.9.6l4 .9c1 .3 1.9.8 2.6 1.6s1.1 1.8 1.1 3.2c0 1.8-.8 3.2-2.4 4.3s-3.7 1.6-6.5 1.6c-1.8-.1-3.4-.3-4.9-.7zm34.6-18.4c1.6.9 2.8 2 3.7 3.6.9 1.5 1.3 3.3 1.3 5.3s-.4 3.8-1.3 5.3-2.1 2.7-3.7 3.6-3.4 1.3-5.3 1.3a10.19 10.19 0 0 1-4-.8c-1.2-.5-2.3-1.4-3.1-2.4v10.3h-3.7v-27.2h3.6v3.2c.8-1.1 1.9-1.9 3.1-2.5 1.3-.6 2.7-.8 4.2-.8 1.8-.2 3.6.2 5.2 1.1zm-2.2 15c1-.6 1.9-1.4 2.5-2.5s.9-2.3.9-3.7-.3-2.6-.9-3.7-1.4-1.9-2.5-2.5c-1-.6-2.2-.9-3.5-.9s-2.5.3-3.5.9-1.9 1.4-2.5 2.5-.9 2.3-.9 3.6.3 2.6.9 3.7 1.4 1.9 2.5 2.5 2.2.9 3.5.9c1.3.1 2.5-.2 3.5-.8zm30.8-5h-16.6c.2 1.8 1 3.2 2.4 4.2s3 1.6 5.1 1.6c2.5 0 4.4-.8 5.9-2.4l2.1 2.3c-.9 1.1-2.1 1.9-3.5 2.4-1.4.6-2.9.8-4.6.8-2.2 0-4.1-.4-5.8-1.3s-3-2.1-3.9-3.6-1.4-3.3-1.4-5.3c0-1.9.4-3.7 1.3-5.2.9-1.6 2.1-2.8 3.7-3.6 1.6-.9 3.3-1.3 5.3-1.3s3.7.4 5.2 1.3a10.34 10.34 0 0 1 3.6 3.6c.9 1.5 1.3 3.3 1.3 5.3 0 .4-.1.8-.1 1.2zm-14.5-6.7c-1.2 1.1-1.9 2.4-2.1 4.1h13.2c-.2-1.7-.9-3-2.1-4.1s-2.7-1.6-4.5-1.6-3.3.6-4.5 1.6zm26.2-3.7c1.3-.6 2.8-.9 4.6-.9v3.5h-.9c-2 0-3.6.6-4.7 1.7s-1.7 2.8-1.7 5v9.9h-3.7v-19.9h3.6v3.3c.5-1.1 1.5-2 2.8-2.6z"/><use xlink:href="#B"/><path d="M478.4 278.5c1.6.9 2.8 2 3.7 3.6.9 1.5 1.3 3.3 1.3 5.3s-.4 3.8-1.3 5.3-2.1 2.7-3.7 3.6-3.4 1.3-5.3 1.3a9.9 9.9 0 0 1-4.2-.9c-1.3-.6-2.3-1.4-3.1-2.5v3.2h-3.6v-27.9h3.7v11c.8-1.1 1.9-1.8 3.1-2.4a10.7 10.7 0 0 1 4.1-.8c1.9-.1 3.7.3 5.3 1.2zm-2.1 15c1-.6 1.9-1.4 2.5-2.5s.9-2.3.9-3.7-.3-2.6-.9-3.7-1.4-1.9-2.5-2.5c-1-.6-2.2-.9-3.5-.9s-2.5.3-3.5.9c-1.1.6-1.9 1.4-2.5 2.5s-.9 2.3-.9 3.7.3 2.6.9 3.7 1.4 1.9 2.5 2.5 2.2.9 3.5.9 2.4-.3 3.5-.9z"/><use xlink:href="#B" x="49.4"/><path d="M512.6 296.9c-1.5-.4-2.8-1-3.6-1.7l1.5-2.9c.9.6 2 1.1 3.3 1.5a13.2 13.2 0 0 0 3.9.6c3.3 0 4.9-.9 4.9-2.7 0-.6-.2-1.1-.7-1.4-.4-.3-1-.6-1.6-.8s-1.6-.3-2.8-.5c-1.7-.2-3-.5-4-.9-1-.3-1.9-.9-2.7-1.7-.7-.8-1.1-1.9-1.1-3.3 0-1.8.8-3.2 2.3-4.3s3.6-1.6 6.2-1.6c1.4 0 2.7.2 4.1.5s2.5.8 3.4 1.3l-1.6 2.9c-1.7-1.1-3.7-1.6-5.9-1.6-1.6 0-2.8.3-3.6.8s-1.2 1.2-1.2 2c0 .7.2 1.2.7 1.5.5.4 1 .7 1.7.8s1.6.4 2.9.6l4 .9c1 .3 1.9.8 2.6 1.6s1.1 1.8 1.1 3.2c0 1.8-.8 3.2-2.4 4.3s-3.7 1.6-6.5 1.6c-1.7-.1-3.3-.3-4.9-.7zm21.1-3.8c.5.5.7 1.1.7 1.8 0 .4 0 .7-.1 1.1s-.3.9-.5 1.6l-1.8 5.2h-2.4l1.4-5.6a2.73 2.73 0 0 1-1.2-.9c-.3-.4-.4-.9-.4-1.4 0-.8.2-1.4.7-1.8.5-.5 1.1-.7 1.9-.7a2.34 2.34 0 0 1 1.7.7zm-396.8 49.1c-.5.5-1.2.8-2 1s-1.6.4-2.5.4c-2.1 0-3.7-.5-4.8-1.6s-1.7-2.6-1.7-4.6v-10.9h-3.5v-3h3.5v-4.4h3.7v4.4h5.9v3h-5.9v10.8c0 1.1.3 1.9.8 2.5.6.6 1.3.9 2.4.9s2.1-.3 2.9-.9l1.2 2.4zm22.3-7.6h-16.6c.2 1.8 1 3.2 2.4 4.2s3 1.6 5.1 1.6c2.5 0 4.4-.8 5.9-2.4l2.1 2.3c-.9 1.1-2.1 1.9-3.5 2.4s-2.9.8-4.6.8c-2.2 0-4.1-.4-5.8-1.3s-3-2.1-3.9-3.6-1.4-3.3-1.4-5.3c0-1.9.4-3.7 1.3-5.2s2.1-2.8 3.7-3.6c1.6-.9 3.3-1.3 5.3-1.3s3.7.4 5.2 1.3a10.34 10.34 0 0 1 3.6 3.6c.9 1.6 1.3 3.3 1.3 5.3 0 .4 0 .8-.1 1.2zm-14.5-6.7c-1.2 1.1-1.9 2.4-2.1 4.1h13.2c-.2-1.7-.9-3-2.1-4.1s-2.7-1.6-4.5-1.6-3.3.5-4.5 1.6zm30.2-12.4h3.7v27.9h-3.7v-27.9zm14.1 26.8c-1.6-.9-2.9-2.1-3.8-3.6s-1.4-3.3-1.4-5.2c0-2 .5-3.7 1.4-5.2s2.2-2.7 3.8-3.6 3.5-1.3 5.5-1.3 3.9.4 5.5 1.3 2.9 2.1 3.8 3.6 1.4 3.3 1.4 5.2c0 2-.5 3.7-1.4 5.2s-2.2 2.7-3.8 3.6-3.4 1.3-5.5 1.3-3.9-.5-5.5-1.3zm9-2.8c1-.6 1.9-1.4 2.5-2.5s.9-2.3.9-3.7-.3-2.6-.9-3.7-1.4-1.9-2.5-2.5c-1-.6-2.2-.9-3.5-.9s-2.5.3-3.5.9-1.9 1.4-2.5 2.5-.9 2.3-.9 3.7.3 2.6.9 3.7 1.4 1.9 2.5 2.5c1 .6 2.2.9 3.5.9s2.5-.3 3.5-.9zm26 2.8c-1.6-.9-2.9-2.1-3.9-3.6-.9-1.5-1.4-3.3-1.4-5.2 0-2 .5-3.7 1.4-5.2s2.2-2.7 3.9-3.6c1.6-.9 3.5-1.3 5.6-1.3a11.48 11.48 0 0 1 5 1.1c1.5.7 2.6 1.8 3.4 3.2l-2.8 1.8c-.6-1-1.4-1.7-2.4-2.1s-2-.7-3.2-.7c-1.3 0-2.5.3-3.6.9s-1.9 1.4-2.5 2.5-.9 2.3-.9 3.7.3 2.6.9 3.7 1.4 1.9 2.5 2.5 2.3.9 3.6.9c1.2 0 2.2-.2 3.2-.7a6.11 6.11 0 0 0 2.4-2.1l2.8 1.7c-.8 1.4-1.9 2.4-3.4 3.2a11.48 11.48 0 0 1-5 1.1c-2.1-.5-3.9-1-5.6-1.8zm32.8-17c1.5 1.4 2.3 3.4 2.3 6v12h-3.5v-2.6c-.6.9-1.5 1.6-2.7 2.1s-2.5.7-4.1.7c-2.3 0-4.1-.5-5.5-1.6s-2.1-2.5-2.1-4.2c0-1.8.7-3.2 2-4.2 1.3-1.1 3.4-1.6 6.3-1.6h5.9v-.7c0-1.6-.5-2.7-1.4-3.6-.9-.8-2.3-1.2-4.1-1.2-1.2 0-2.4.2-3.6.6s-2.1.9-2.9 1.6l-1.5-2.7c1.1-.8 2.3-1.5 3.8-1.9s3-.7 4.7-.7c2.7 0 4.9.6 6.4 2zm-3.7 14.6c1-.6 1.8-1.5 2.2-2.6v-2.8h-5.7c-3.1 0-4.7 1-4.7 3.1 0 1 .4 1.8 1.2 2.4s1.9.9 3.3.9 2.6-.4 3.7-1zm44.6-14.5c1.5 1.5 2.3 3.6 2.3 6.5v11.5h-3.7v-11c0-1.9-.5-3.4-1.4-4.4s-2.2-1.5-3.9-1.5c-1.9 0-3.4.6-4.5 1.7s-1.7 2.8-1.7 4.9v10.3h-3.7v-11c0-1.9-.5-3.4-1.4-4.4s-2.2-1.5-3.9-1.5c-1.9 0-3.4.6-4.5 1.7s-1.7 2.8-1.7 4.9v10.3h-3.7v-19.9h3.6v3c.7-1 1.7-1.8 2.9-2.3a10.7 10.7 0 0 1 4.1-.8c1.6 0 3 .3 4.3.9 1.2.6 2.2 1.5 2.9 2.7.8-1.2 1.9-2.1 3.2-2.7s2.9-1 4.7-1c2.6 0 4.6.7 6.1 2.1zm25.4-.9c1.6.9 2.8 2 3.7 3.6.9 1.5 1.3 3.3 1.3 5.3s-.4 3.8-1.3 5.3-2.1 2.7-3.7 3.6-3.4 1.3-5.3 1.3a9.9 9.9 0 0 1-4.2-.9c-1.3-.6-2.3-1.4-3.1-2.5v3.2h-3.6v-27.9h3.7v11c.8-1.1 1.9-1.8 3.1-2.4a10.7 10.7 0 0 1 4.1-.8c1.9 0 3.7.4 5.3 1.2zm-2.2 15c1-.6 1.9-1.4 2.5-2.5s.9-2.3.9-3.7-.3-2.6-.9-3.7-1.4-1.9-2.5-2.5c-1-.6-2.2-.9-3.5-.9s-2.5.3-3.5.9c-1.1.6-1.9 1.4-2.5 2.5s-.9 2.3-.9 3.7.3 2.6.9 3.7 1.4 1.9 2.5 2.5 2.2.9 3.5.9 2.5-.3 3.5-.9zm12.4-20.6a2.19 2.19 0 0 1-.7-1.7 2.19 2.19 0 0 1 .7-1.7c.5-.5 1.1-.7 1.8-.7s1.3.2 1.8.7c.5.4.7 1 .7 1.6a2.19 2.19 0 0 1-.7 1.7c-.5.5-1.1.7-1.8.7-.7.1-1.3-.1-1.8-.6zm-.1 4.5h3.7v19.9h-3.7v-19.9zm24.8 1.9c1.5 1.4 2.3 3.4 2.3 6v12h-3.5v-2.6c-.6.9-1.5 1.6-2.7 2.1s-2.5.7-4.1.7c-2.3 0-4.1-.5-5.5-1.6s-2.1-2.5-2.1-4.2c0-1.8.7-3.2 2-4.2 1.3-1.1 3.4-1.6 6.3-1.6h5.9v-.7c0-1.6-.5-2.7-1.4-3.6s-2.3-1.2-4.1-1.2c-1.2 0-2.4.2-3.6.6s-2.1.9-2.9 1.6l-1.5-2.7c1.1-.8 2.3-1.5 3.8-1.9s3-.7 4.7-.7c2.7 0 4.9.6 6.4 2zm-3.7 14.6c1-.6 1.8-1.5 2.2-2.6v-2.8h-5.7c-3.1 0-4.7 1-4.7 3.1 0 1 .4 1.8 1.2 2.4s1.9.9 3.3.9 2.7-.4 3.7-1zm44.7-14.5c1.5 1.5 2.3 3.6 2.3 6.5v11.5h-3.7v-11c0-1.9-.5-3.4-1.4-4.4s-2.2-1.5-3.9-1.5c-1.9 0-3.4.6-4.5 1.7s-1.7 2.8-1.7 4.9v10.3h-3.7v-11c0-1.9-.5-3.4-1.4-4.4s-2.2-1.5-3.9-1.5c-1.9 0-3.4.6-4.5 1.7s-1.7 2.8-1.7 4.9v10.3h-3.7v-19.9h3.6v3c.7-1 1.7-1.8 2.9-2.3a10.7 10.7 0 0 1 4.1-.8c1.6 0 3 .3 4.3.9 1.2.6 2.2 1.5 2.9 2.7.8-1.2 1.9-2.1 3.2-2.7s2.9-1 4.7-1c2.5 0 4.6.7 6.1 2.1zm12.5 16.9c-1.6-.9-2.9-2.1-3.8-3.6s-1.4-3.3-1.4-5.2c0-2 .5-3.7 1.4-5.2s2.2-2.7 3.8-3.6 3.5-1.3 5.5-1.3 3.9.4 5.5 1.3 2.9 2.1 3.8 3.6 1.4 3.3 1.4 5.2c0 2-.5 3.7-1.4 5.2s-2.2 2.7-3.8 3.6-3.4 1.3-5.5 1.3c-2 0-3.9-.5-5.5-1.3zm9-2.8c1-.6 1.9-1.4 2.5-2.5s.9-2.3.9-3.7-.3-2.6-.9-3.7-1.4-1.9-2.5-2.5-2.2-.9-3.5-.9-2.5.3-3.5.9-1.9 1.4-2.5 2.5-.9 2.3-.9 3.7.3 2.6.9 3.7 1.4 1.9 2.5 2.5c1 .6 2.2.9 3.5.9s2.5-.3 3.5-.9zm13.3 3.4c-1.5-.4-2.8-1-3.6-1.7l1.5-2.9c.9.6 2 1.1 3.3 1.5a13.2 13.2 0 0 0 3.9.6c3.3 0 4.9-.9 4.9-2.7 0-.6-.2-1.1-.7-1.4-.4-.3-1-.6-1.6-.8s-1.6-.3-2.8-.5c-1.7-.2-3-.5-4-.9-1-.3-1.9-.9-2.7-1.7-.7-.8-1.1-1.9-1.1-3.3 0-1.8.8-3.2 2.3-4.3s3.6-1.6 6.2-1.6c1.4 0 2.7.2 4.1.5s2.5.8 3.4 1.3l-1.6 2.9c-1.7-1.1-3.7-1.6-5.9-1.6-1.6 0-2.8.3-3.6.8s-1.2 1.2-1.2 2c0 .7.2 1.2.7 1.5.5.4 1 .7 1.7.8s1.6.4 2.9.6l4 .9c1 .3 1.9.8 2.6 1.6s1.1 1.8 1.1 3.2c0 1.8-.8 3.2-2.4 4.3s-3.7 1.6-6.5 1.6c-1.7 0-3.3-.2-4.9-.7z"/></g><path d="M35.4 252.2h499.3v6.5H35.4z" fill="#e50695"/><defs ><path id="B" d="M453 279.2c1.5 1.4 2.3 3.4 2.3 6v12h-3.5v-2.6c-.6.9-1.5 1.6-2.7 2.1s-2.5.7-4.1.7c-2.3 0-4.1-.5-5.5-1.6s-2.1-2.5-2.1-4.2c0-1.8.7-3.2 2-4.2 1.3-1.1 3.4-1.6 6.3-1.6h5.9v-.7c0-1.6-.5-2.7-1.4-3.6s-2.3-1.2-4.1-1.2c-1.2 0-2.4.2-3.6.6s-2.1.9-2.9 1.6l-1.5-2.7c1.1-.8 2.3-1.5 3.8-1.9s3-.7 4.7-.7c2.7 0 4.9.7 6.4 2zm-3.7 14.6c1-.6 1.8-1.5 2.2-2.6v-2.8h-5.7c-3.1 0-4.7 1-4.7 3.1 0 1 .4 1.8 1.2 2.4s1.9.9 3.3.9 2.7-.4 3.7-1z"/></defs></svg>